<svg width="36" height="36" viewBox="0 0 36 36" fill="none" xmlns="http://www.w3.org/2000/svg">
<path fill-rule="evenodd" clip-rule="evenodd" d="M19.6339 26.1729C19.6339 27.0766 18.9013 27.8092 17.9976 27.8092C17.0939 27.8092 16.3613 27.0766 16.3613 26.1729L16.3613 3.26469C16.3613 2.36099 17.0939 1.62839 17.9976 1.62839C18.9013 1.62839 19.6339 2.36099 19.6339 3.26469L19.6339 26.1729Z" fill="currentColor"/>
<path d="M7.67981 14.147C7.02967 14.7747 5.99378 14.7565 5.36609 14.1064C4.7384 13.4562 4.7566 12.4204 5.40675 11.7927L17.1458 0.459052C17.4699 0.146148 17.8899 -0.00624963 18.3074 0.000132338C18.7242 0.0063369 19.1394 0.171331 19.4539 0.493869L30.623 11.948C31.2539 12.595 31.2409 13.6309 30.5939 14.2619C29.9469 14.8928 28.9109 14.8797 28.28 14.2327L18.2476 3.94432L7.67981 14.147Z" fill="currentColor"/>
<path d="M0 22.9094V31.0909C0 33.802 2.19779 35.9998 4.9089 35.9998H31.0897C33.8008 35.9998 35.9986 33.802 35.9986 31.0909V22.9094C35.9986 22.0057 35.266 21.2731 34.3623 21.2731C33.4586 21.2731 32.726 22.0057 32.726 22.9094V31.0909C32.726 31.9946 31.9934 32.7272 31.0897 32.7272H4.9089C4.0052 32.7272 3.2726 31.9946 3.2726 31.0909V22.9094C3.2726 22.0057 2.54001 21.2731 1.6363 21.2731C0.732597 21.2731 0 22.0057 0 22.9094Z" fill="var(--mi-icon-secondary)"/>
</svg>
