<svg width="36" height="36" viewBox="0 0 36 36" fill="none" xmlns="http://www.w3.org/2000/svg">
<rect y="32.509" width="36" height="3.27272" rx="1.07399" fill="currentColor"/>
<path fill-rule="evenodd" clip-rule="evenodd" d="M33.7926 21.6499L20.8896 1.57854C20.6234 1.16445 20.2713 0.812388 19.8572 0.546187C18.2608 -0.48009 16.1347 -0.0178891 15.1084 1.57854L2.20539 21.6499C1.84907 22.2041 1.65962 22.8492 1.65962 23.5081C1.65962 25.4059 3.19814 26.9445 5.09599 26.9445H30.902C31.5609 26.9445 32.206 26.755 32.7602 26.3987C34.3567 25.3724 34.8189 23.2463 33.7926 21.6499ZM17.8627 3.34875C17.9116 3.27273 18.0128 3.25072 18.0888 3.29959C18.1085 3.31227 18.1253 3.32903 18.138 3.34875L31.041 23.4201C31.0899 23.4961 31.0678 23.5973 30.9918 23.6462C30.9654 23.6632 30.9347 23.6722 30.9033 23.6722H5.09734C5.00696 23.6722 4.9337 23.5989 4.9337 23.5086C4.9337 23.4772 4.94272 23.4465 4.95969 23.4201L17.8627 3.34875Z" fill="var(--mi-icon-secondary)"/>
</svg>
