<svg width="37" height="37" viewBox="0 0 37 37" fill="none" xmlns="http://www.w3.org/2000/svg">
<path d="M33.0976 13.3984V32.6007C33.0976 33.2175 32.5976 33.7176 31.9807 33.7176H4.39934C3.78248 33.7176 3.28241 33.2175 3.28241 32.6007V5.01935C3.28241 4.40249 3.78248 3.90242 4.39934 3.90242H23.793C24.6994 3.90242 25.4342 3.16763 25.4342 2.26122C25.4342 1.35481 24.6994 0.620014 23.793 0.620014H4.39934C1.96965 0.620014 0 2.58966 0 5.01935V32.6007C0 35.0304 1.96965 37 4.39934 37H31.9807C34.4104 37 36.38 35.0304 36.38 32.6007V13.3984C36.38 12.492 35.6452 11.7572 34.7388 11.7572C33.8324 11.7572 33.0976 12.492 33.0976 13.3984Z" fill="currentColor"/>
<path fill-rule="evenodd" clip-rule="evenodd" d="M33.8689 0.696303C34.2534 0.311746 34.8769 0.311746 35.2615 0.696303L36.1899 1.62471C36.5744 2.00927 36.5744 2.63276 36.1899 3.01731L17.3703 21.8368C16.9858 22.2214 16.3623 22.2214 15.9777 21.8368L15.0493 20.9084C14.6648 20.5239 14.6648 19.9004 15.0493 19.5158L33.8689 0.696303Z" fill="var(--mi-icon-secondary)"/>
</svg>
