<svg width="36" height="37" viewBox="0 0 36 37" fill="none" xmlns="http://www.w3.org/2000/svg">
<path d="M12.8921 1.45528C5.31891 3.62033 0 10.6003 0 18.6302C0 28.4885 7.94835 36.4842 17.758 36.4842C25.5039 36.4842 32.2835 31.4535 34.6454 24.1662C34.9248 23.3043 34.4525 22.3791 33.5906 22.0997C32.7287 21.8204 31.8035 22.2926 31.5241 23.1546C29.5969 29.1009 24.0685 33.2031 17.758 33.2031C9.76485 33.2031 3.28113 26.6808 3.28113 18.6302C3.28113 12.0718 7.62278 6.37427 13.794 4.61002C14.6652 4.36097 15.1695 3.45286 14.9204 2.5817C14.6714 1.71054 13.7633 1.20623 12.8921 1.45528Z" fill="currentColor"/>
<path fill-rule="evenodd" clip-rule="evenodd" d="M19.0044 3.36941V18.0307L32.6783 18.0197C32.1416 10.3788 26.3311 4.1738 19.0044 3.36941ZM17.3756 4.16518e-05C17.3717 1.38994e-05 17.3678 0 17.3638 0C16.4577 0 15.7232 0.734506 15.7232 1.64057V21.3145L34.3612 21.2995C35.2672 21.2987 36.0011 20.5636 36.0004 19.6576C36.0003 19.5754 35.9942 19.4947 35.9825 19.4158C35.994 19.3375 35.9999 19.2574 35.9999 19.1759C35.9999 8.66586 27.6793 0 17.3874 0C17.3835 0 17.3796 1.38994e-05 17.3756 4.16518e-05Z" fill="var(--mi-icon-secondary)"/>
</svg>
