<svg width="37" height="31" viewBox="0 0 37 31" fill="none" xmlns="http://www.w3.org/2000/svg">
<rect y="0.513561" width="17.9472" height="3.26312" rx="0.976355" fill="currentColor"/>
<rect y="26.619" width="17.9472" height="3.26312" rx="0.976355" fill="currentColor"/>
<rect x="25.256" y="27.7367" width="3.26312" height="27.7365" rx="0.976355" transform="rotate(-180 25.256 27.7367)" fill="var(--mi-icon-secondary)"/>
<rect y="13.5636" width="11.4209" height="3.26312" rx="0.976355" fill="currentColor"/>
<path d="M33.3485 17.571L23.6361 27.7371L14.2501 17.5902C13.6382 16.9287 12.606 16.8885 11.9445 17.5004C11.283 18.1123 11.2428 19.1445 11.8547 19.806L21.2407 29.9529C21.3099 30.0261 21.3099 30.0261 21.382 30.0965C22.6851 31.3414 24.7506 31.2943 25.9956 29.9912L35.7079 19.8252C36.3304 19.1736 36.3068 18.1409 35.6553 17.5184C35.0038 16.8959 33.971 16.9195 33.3485 17.571Z" fill="var(--mi-icon-secondary)"/>
</svg>
