<svg width="33" height="38" viewBox="0 0 33 38" fill="none" xmlns="http://www.w3.org/2000/svg">
<rect x="6.04865" y="34.7297" width="20.6027" height="3.27026" rx="1.62726" fill="currentColor"/>
<rect x="14.8783" y="29.8208" width="3.27026" height="4.90539" fill="currentColor"/>
<path fill-rule="evenodd" clip-rule="evenodd" d="M32.7026 16.3513C32.7026 25.3819 25.3819 32.7026 16.3513 32.7026C7.32073 32.7026 0 25.3819 0 16.3513C0 7.32073 7.32073 0 16.3513 0C25.3819 0 32.7026 7.32073 32.7026 16.3513ZM3.27161 16.3522C3.27161 23.5766 9.1282 29.4332 16.3527 29.4332C23.5771 29.4332 29.4337 23.5766 29.4337 16.3522C29.4337 9.1277 23.5771 3.27112 16.3527 3.27112C9.1282 3.27112 3.27161 9.1277 3.27161 16.3522Z" fill="var(--mi-icon-secondary)"/>
<ellipse cx="16.8418" cy="16.6131" rx="4.9054" ry="4.90539" fill="currentColor"/>
</svg>
