<svg width="37" height="37" viewBox="0 0 37 37" fill="none" xmlns="http://www.w3.org/2000/svg">
<path d="M25.7223 28.1811L33.5086 35.7481C34.1577 36.3789 35.1954 36.3641 35.8262 35.715C36.4571 35.0658 36.4423 34.0282 35.7931 33.3973L28.0069 25.8303C27.3577 25.1995 26.3201 25.2143 25.6892 25.8634C25.0584 26.5126 25.0732 27.5502 25.7223 28.1811Z" fill="currentColor"/>
<path fill-rule="evenodd" clip-rule="evenodd" d="M32.2206 16.0322C32.2206 24.8886 25.0058 32.0645 16.1103 32.0645C7.2148 32.0645 0 24.8886 0 16.0322C0 7.17589 7.2148 0 16.1103 0C25.0058 0 32.2206 7.17589 32.2206 16.0322ZM3.27932 16.0331C3.27932 23.0751 9.02257 28.7874 16.1116 28.7874C23.2007 28.7874 28.944 23.0751 28.944 16.0331C28.944 8.9911 23.2007 3.27883 16.1116 3.27883C9.02257 3.27883 3.27932 8.9911 3.27932 16.0331Z" fill="var(--mi-icon-secondary)"/>
</svg>
