<svg width="36" height="23" viewBox="0 0 36 23" fill="none" xmlns="http://www.w3.org/2000/svg">
<path fill-rule="evenodd" clip-rule="evenodd" d="M27.1415 4.25984C27.5585 3.45813 27.2466 2.47015 26.4449 2.05314C23.8656 0.711533 20.9828 0 17.999 0C8.06757 0 0 7.86587 0 17.5899C0 18.6366 0.0937261 19.6724 0.278697 20.6888C0.440493 21.5779 1.2924 22.1675 2.18149 22.0057C3.07057 21.8439 3.66016 20.992 3.49836 20.1029C3.34853 19.2795 3.27254 18.4398 3.27254 17.5899C3.27254 9.69205 9.85666 3.27254 17.999 3.27254C20.4546 3.27254 22.8197 3.8563 24.9348 4.95642C25.7365 5.37343 26.7244 5.06156 27.1415 4.25984ZM33.8472 21.9063C34.7374 22.0622 35.5854 21.467 35.7413 20.5768C35.913 19.5962 36 18.598 36 17.5897C36 14.0628 34.9341 10.6876 32.9699 7.81881C32.4593 7.07316 31.441 6.88256 30.6953 7.3931C29.9497 7.90364 29.7591 8.92198 30.2696 9.66764C31.8646 11.9972 32.7275 14.7293 32.7275 17.5897C32.7275 18.4085 32.6569 19.2178 32.5178 20.0122C32.3619 20.9024 32.9571 21.7504 33.8472 21.9063Z" fill="var(--mi-icon-secondary)"/>
<path fill-rule="evenodd" clip-rule="evenodd" d="M23.9999 15.8512C23.9999 19.466 21.0695 22.3963 17.4548 22.3963C13.84 22.3963 10.9097 19.466 10.9097 15.8512C10.9097 12.2365 13.84 9.30614 17.4548 9.30614C21.0695 9.30614 23.9999 12.2365 23.9999 15.8512ZM14.1836 15.8521C14.1836 17.6595 15.6488 19.1246 17.4561 19.1246C19.2635 19.1246 20.7287 17.6595 20.7287 15.8521C20.7287 14.0447 19.2635 12.5795 17.4561 12.5795C15.6488 12.5795 14.1836 14.0447 14.1836 15.8521Z" fill="currentColor"/>
<path fill-rule="evenodd" clip-rule="evenodd" d="M29.7175 2.84292C30.099 2.47139 30.7072 2.47175 31.0883 2.84372L31.8853 3.62174C32.2803 4.00728 32.2799 4.64256 31.8845 5.02764L22.767 13.9064C22.3855 14.278 21.7774 14.2776 21.3963 13.9056L20.5993 13.1276C20.2043 12.7421 20.2047 12.1068 20.6001 11.7217L29.7175 2.84292Z" fill="currentColor"/>
</svg>
