<svg width="34" height="36" viewBox="0 0 34 36" fill="none" xmlns="http://www.w3.org/2000/svg">
<path d="M25.5549 27.117C27.4068 24.478 28.4237 21.6229 28.4237 18.5086C28.4237 15.4777 27.4038 12.4605 25.7028 9.92782C25.1978 9.17591 24.1788 8.97576 23.4269 9.48078C22.675 9.98579 22.4749 11.0047 22.9799 11.7566C24.3349 13.7741 25.1437 16.1668 25.1437 18.5086C25.1437 20.9028 24.3553 23.1162 22.87 25.2329C22.3497 25.9743 22.5289 26.9971 23.2704 27.5174C24.0118 28.0377 25.0346 27.8584 25.5549 27.117Z" fill="currentColor"/>
<path d="M29.9264 32.3202C32.4951 28.3839 33.9996 23.4106 33.9996 18.3097C33.9996 13.7679 32.5989 9.40346 30.131 4.68569C29.7112 3.88311 28.7202 3.57283 27.9176 3.99267C27.1151 4.41251 26.8048 5.40348 27.2246 6.20606C29.4691 10.4967 30.7195 14.3931 30.7195 18.3097C30.7195 22.7686 29.4031 27.1201 27.1795 30.5277C26.6845 31.2862 26.8981 32.3024 27.6567 32.7974C28.4152 33.2924 29.4314 33.0788 29.9264 32.3202Z" fill="currentColor"/>
<path fill-rule="evenodd" clip-rule="evenodd" d="M0 25.5397C0 28.01 2.00255 30.0125 4.47281 30.0125H7.81403L14.7694 35.3221C15.3021 35.7287 15.9537 35.949 16.624 35.949C18.312 35.949 19.6804 34.5806 19.6804 32.8926V3.05642C19.6804 2.25424 19.365 1.48422 18.8023 0.912493C17.6183 -0.290585 15.6831 -0.306004 14.48 0.878054L8.11073 7.14664H4.47281C2.00255 7.14664 0 9.14919 0 11.6194V25.5397ZM4.47416 10.4214H9.45545L16.4017 3.58505V32.4353L8.92426 26.7272H4.47416C3.81543 26.7272 3.28141 26.1932 3.28141 25.5345V11.6142C3.28141 10.9554 3.81543 10.4214 4.47416 10.4214Z" fill="var(--mi-icon-secondary)"/>
</svg>
