<svg width="36" height="36" viewBox="0 0 36 36" fill="none" xmlns="http://www.w3.org/2000/svg">
<path fill-rule="evenodd" clip-rule="evenodd" d="M13.3428 0H3.27277C1.46527 0 0 1.46527 0 3.27276V13.3428C0 15.1503 1.46527 16.6156 3.27277 16.6156H13.3428C15.1503 16.6156 16.6156 15.1503 16.6156 13.3428V3.27276C16.6156 1.46527 15.1503 0 13.3428 0ZM3.27411 13.3437V3.27362H13.3442V13.3437H3.27411Z" fill="currentColor"/>
<path fill-rule="evenodd" clip-rule="evenodd" d="M32.7243 0H22.6543C20.8468 0 19.3815 1.46527 19.3815 3.27276V13.3428C19.3815 15.1503 20.8468 16.6156 22.6543 16.6156H32.7243C34.5318 16.6156 35.9971 15.1503 35.9971 13.3428V3.27276C35.9971 1.46527 34.5318 0 32.7243 0ZM22.6517 13.3437V3.27362H32.7217V13.3437H22.6517Z" fill="var(--mi-icon-secondary)"/>
<path fill-rule="evenodd" clip-rule="evenodd" d="M13.3428 19.3844H3.27277C1.46527 19.3844 0 20.8497 0 22.6572V32.7272C0 34.5347 1.46527 36 3.27277 36H13.3428C15.1503 36 16.6156 34.5347 16.6156 32.7272V22.6572C16.6156 20.8497 15.1503 19.3844 13.3428 19.3844ZM3.27411 32.7281V22.6581H13.3442V32.7281H3.27411Z" fill="currentColor"/>
<path fill-rule="evenodd" clip-rule="evenodd" d="M32.7243 19.3844H22.6543C20.8468 19.3844 19.3815 20.8497 19.3815 22.6572V32.7272C19.3815 34.5347 20.8468 36 22.6543 36H32.7243C34.5318 36 35.9971 34.5347 35.9971 32.7272V22.6572C35.9971 20.8497 34.5318 19.3844 32.7243 19.3844ZM22.6517 32.7281V22.6581H32.7217V32.7281H22.6517Z" fill="currentColor"/>
</svg>
