<svg width="36" height="35" viewBox="0 0 36 35" fill="none" xmlns="http://www.w3.org/2000/svg">
<path fill-rule="evenodd" clip-rule="evenodd" d="M36 8.55807C36 11.6046 33.6687 14.1233 30.7272 14.1233C27.7856 14.1233 25.4544 11.6046 25.4544 8.55807C25.4544 5.91735 28.8534 -0.00108442 30.6185 0.00129665C32.5155 -0.101151 36 5.89367 36 8.55807ZM32.7284 8.56107C32.7284 7.9619 32.1673 6.56717 31.3133 5.09794C31.1161 4.75856 30.9122 4.43039 30.715 4.13226C30.5192 4.43134 30.317 4.76052 30.1216 5.10093C29.2801 6.56611 28.7284 7.95661 28.7284 8.56107C28.7284 9.85425 29.6533 10.8536 30.7284 10.8536C31.8035 10.8536 32.7284 9.85425 32.7284 8.56107Z" fill="currentColor"/>
<path fill-rule="evenodd" clip-rule="evenodd" d="M25.0912 22.0397C25.0912 28.9387 19.4724 34.5279 12.5456 34.5279C5.61878 34.5279 0 28.9387 0 22.0397C0 16.1225 9.25703 1.28229 12.4031 1.28431C15.6325 1.12374 25.0912 16.1062 25.0912 22.0397ZM13.5894 6.07477C13.1733 5.57534 12.8005 5.16477 12.4942 4.86552C12.1846 5.17025 11.8076 5.58954 11.3871 6.09999C10.3078 7.41009 9.04166 9.19553 7.85758 11.0938C5.08211 15.5432 3.27395 19.7389 3.27395 22.0357C3.27395 27.1233 7.42361 31.2511 12.5468 31.2511C17.6699 31.2511 21.8196 27.1233 21.8196 22.0357C21.8196 19.7456 19.9806 15.5371 17.1621 11.0727C15.9612 9.17033 14.6784 7.38195 13.5894 6.07477Z" fill="var(--mi-icon-secondary)"/>
<path d="M17.0653 21.3202C16.4427 24.1177 15.3089 25.4733 13.6331 25.7527C12.7417 25.9013 12.1395 26.7445 12.2882 27.6359C12.4368 28.5273 13.28 29.1295 14.1714 28.9809C17.3336 28.4536 19.3733 26.0151 20.2599 22.0311C20.4562 21.149 19.9002 20.2747 19.0181 20.0784C18.1359 19.8821 17.2616 20.438 17.0653 21.3202Z" fill="currentColor"/>
</svg>
