<svg width="31" height="36" viewBox="0 0 31 36" fill="none" xmlns="http://www.w3.org/2000/svg">
<path d="M26.1063 10.6053C26.1063 4.74813 21.3582 0 15.501 0C9.64391 0 4.89577 4.74813 4.89577 10.6053H8.15893C8.15893 6.55032 11.4461 3.26315 15.501 3.26315C19.556 3.26315 22.8431 6.55032 22.8431 10.6053H26.1063Z" fill="currentColor"/>
<rect y="9.79155" width="31" height="3.26315" rx="0.976355" fill="currentColor"/>
<rect x="1.63127" y="32.6333" width="27.7368" height="3.26315" rx="0.976355" fill="currentColor"/>
<path fill-rule="evenodd" clip-rule="evenodd" d="M22.8417 11.4209H26.1049V17.832H22.8417V11.4209ZM22.8431 32.3557V22.9617H26.1063V32.3557C26.1063 34.2158 24.8915 35.8907 23.0942 35.8907H7.90792C6.11058 35.8907 4.89577 34.2158 4.89577 32.3557V22.9715H8.15893V32.3557C8.15893 32.4611 8.17465 32.5547 8.19789 32.6276H22.8042C22.8274 32.5547 22.8431 32.4611 22.8431 32.3557ZM4.89577 17.8252H8.15893V11.4209H4.89577V17.8252Z" fill="currentColor"/>
<rect x="10.6826" y="17.3531" width="3.26316" height="11.421" rx="0.976355" fill="var(--mi-icon-secondary)"/>
<rect x="17.2096" y="17.3531" width="3.26316" height="11.421" rx="0.976355" fill="var(--mi-icon-secondary)"/>
<rect x="26.1062" y="16.3142" width="3.26316" height="8.15789" fill="currentColor"/>
<rect x="1.63127" y="16.3142" width="3.26316" height="8.15789" fill="currentColor"/>
</svg>
