<svg width="36" height="36" viewBox="0 0 36 36" fill="none" xmlns="http://www.w3.org/2000/svg">
<path fill-rule="evenodd" clip-rule="evenodd" d="M36 18C36 27.9411 27.9411 36 18 36C8.05887 36 0 27.9411 0 18C0 8.05887 8.05887 0 18 0C27.9411 0 36 8.05887 36 18ZM3.27015 18.0004C3.27015 26.134 9.86377 32.7276 17.9974 32.7276C26.1311 32.7276 32.7247 26.134 32.7247 18.0004C32.7247 9.86671 26.1311 3.27309 17.9974 3.27309C9.86377 3.27309 3.27015 9.86671 3.27015 18.0004Z" fill="currentColor"/>
<path d="M14.2086 25.9588C13.6765 26.6892 13.8373 27.7128 14.5678 28.2449C15.2983 28.777 16.3219 28.6161 16.8539 27.8856L24.2704 17.7038C24.5622 17.3031 24.6759 16.7999 24.5847 16.3127C24.4017 15.3355 23.4612 14.6918 22.4841 14.8748L16.9287 15.9152L21.9961 9.17156C22.5391 8.44907 22.3935 7.42327 21.671 6.88035C20.9485 6.33744 19.9227 6.48302 19.3798 7.20551L12.0354 16.9791C11.4382 17.7739 11.5984 18.9022 12.3931 19.4994C12.7968 19.8028 13.3094 19.9226 13.8058 19.8297L19.4418 18.7742L14.2086 25.9588Z" fill="var(--mi-icon-secondary)"/>
</svg>
