<svg width="36" height="36" viewBox="0 0 36 36" fill="none" xmlns="http://www.w3.org/2000/svg">
<path fill-rule="evenodd" clip-rule="evenodd" d="M32.726 6.54643H3.2726C1.46519 6.54643 0 8.01162 0 9.81903V32.7272C0 34.5346 1.46519 35.9998 3.2726 35.9998H32.726C34.5334 35.9998 35.9986 34.5346 35.9986 32.7272V9.81903C35.9986 8.01162 34.5334 6.54643 32.726 6.54643ZM3.27395 32.7281V9.81989H32.7274V32.7281H3.27395Z" fill="currentColor"/>
<rect width="35.9986" height="3.2726" rx="1.62726" fill="var(--mi-icon-secondary)"/>
<path d="M9.34328 20.1304C8.70648 19.4892 7.67044 19.4856 7.02921 20.1224C6.38799 20.7592 6.3844 21.7952 7.0212 22.4364L14.8533 30.323L28.9878 15.8683C29.6196 15.2221 29.608 14.1861 28.9619 13.5543C28.3157 12.9225 27.2797 12.9341 26.6479 13.5802L14.8353 25.6606L9.34328 20.1304Z" fill="currentColor"/>
</svg>
