<svg width="37" height="31" viewBox="0 0 37 31" fill="none" xmlns="http://www.w3.org/2000/svg">
<rect y="0.902708" width="18.3642" height="3.33894" rx="0.976355" fill="currentColor"/>
<rect y="27.6147" width="18.3642" height="3.33894" rx="0.976355" fill="currentColor"/>
<rect x="22.8432" y="2.56986" width="3.33894" height="28.381" rx="0.976355" fill="var(--mi-icon-secondary)"/>
<rect y="14.256" width="11.6863" height="3.33894" rx="0.976355" fill="currentColor"/>
<path d="M14.5627 13.7412L24.5008 3.33895L34.1049 13.7216C34.731 14.3984 35.7872 14.4396 36.4641 13.8135C37.1409 13.1874 37.1821 12.1311 36.556 11.4543L26.9519 1.07164C26.8811 0.996687 26.8811 0.996687 26.8073 0.924706C25.4739 -0.349142 23.3604 -0.300908 22.0865 1.03244L12.1485 11.4347C11.5115 12.1013 11.5357 13.1581 12.2023 13.795C12.869 14.432 13.9258 14.4079 14.5627 13.7412Z" fill="var(--mi-icon-secondary)"/>
</svg>
