<svg width="39" height="36" viewBox="0 0 39 36" fill="none" xmlns="http://www.w3.org/2000/svg">
<path fill-rule="evenodd" clip-rule="evenodd" d="M7.98528 2.28205L0.545566 15.8054C-0.178853 17.1222 -0.182027 18.7175 0.537144 20.0371L7.98431 33.7026C8.75606 35.1187 10.24 36 11.8528 36H26.6074C28.2172 36 29.6989 35.1219 30.4719 33.7099L37.9466 20.0552C38.6762 18.7224 38.6675 17.1077 37.9236 15.7828L30.3247 2.24871C29.5448 0.859804 28.076 0 26.4832 0H11.8453C10.2388 0 8.75964 0.874477 7.98528 2.28205ZM3.4122 18.4719C3.22727 18.1326 3.22809 17.7224 3.41437 17.3838L10.8541 3.8604C11.0532 3.49845 11.4336 3.27359 11.8467 3.27359H26.4845C26.8941 3.27359 27.2718 3.49468 27.4723 3.85183L35.0713 17.3859C35.2626 17.7266 35.2648 18.1418 35.0772 18.4845L27.6025 32.1392C27.4037 32.5023 27.0227 32.7281 26.6088 32.7281H11.8541C11.4394 32.7281 11.0578 32.5015 10.8594 32.1374L3.4122 18.4719Z" fill="currentColor"/>
<path fill-rule="evenodd" clip-rule="evenodd" d="M27.3034 17.9235C27.3034 22.4422 23.6403 26.1053 19.1216 26.1053C14.6029 26.1053 10.9398 22.4422 10.9398 17.9235C10.9398 13.4048 14.6029 9.74171 19.1216 9.74171C23.6403 9.74171 27.3034 13.4048 27.3034 17.9235ZM14.2139 17.9244C14.2139 20.6356 16.4117 22.8335 19.123 22.8335C21.8342 22.8335 24.0321 20.6356 24.0321 17.9244C24.0321 15.2132 21.8342 13.0153 19.123 13.0153C16.4117 13.0153 14.2139 15.2132 14.2139 17.9244Z" fill="var(--mi-icon-secondary)"/>
</svg>
