<svg width="39" height="30" viewBox="0 0 39 30" fill="none" xmlns="http://www.w3.org/2000/svg">
<path fill-rule="evenodd" clip-rule="evenodd" d="M21.1482 8.6656C21.1482 7.74794 20.4042 7.00403 19.4866 7.00403C15.4648 7.00403 12.2012 10.252 12.2012 14.2625C12.2012 15.1802 12.9451 15.9241 13.8628 15.9241C14.7805 15.9241 15.5244 15.1802 15.5244 14.2625C15.5244 12.0909 17.2965 10.3272 19.4866 10.3272C20.4042 10.3272 21.1482 9.58327 21.1482 8.6656ZM17.8252 19.8575C17.8252 20.7752 18.5691 21.5191 19.4868 21.5191C23.5086 21.5191 26.7721 18.2712 26.7721 14.2607C26.7721 13.343 26.0282 12.5991 25.1106 12.5991C24.1929 12.5991 23.449 13.343 23.449 14.2607C23.449 16.4323 21.6768 18.196 19.4868 18.196C18.5691 18.196 17.8252 18.9399 17.8252 19.8575Z" fill="currentColor"/>
<path fill-rule="evenodd" clip-rule="evenodd" d="M7.3221 22.7647C8.00056 22.1468 8.04964 21.0959 7.43174 20.4174C6.59382 19.4974 5.2293 17.6501 3.37497 14.9133C8.28581 7.10873 13.6484 3.32315 19.4871 3.32315C21.0917 3.32315 22.6501 3.6057 24.1715 4.17299C25.0313 4.49361 25.9882 4.05649 26.3089 3.19666C26.6295 2.33683 26.1924 1.37989 25.3325 1.05927C23.4407 0.353824 21.4891 0 19.4871 0C12.3009 0 5.95162 4.5127 0.464059 13.3002C-0.175984 14.3251 -0.152226 15.6297 0.524621 16.6308C2.51363 19.5724 3.98412 21.5672 4.97484 22.655C5.59274 23.3335 6.64364 23.3826 7.3221 22.7647ZM30.3762 6.64816C29.7173 7.28685 29.7009 8.33877 30.3396 8.99769C31.3117 10.0005 33.0779 12.0404 35.6139 15.0923C30.6719 22.8304 25.3049 26.585 19.4896 26.585C17.2737 26.585 15.146 26.046 13.0848 24.9583C12.2732 24.53 11.2681 24.8407 10.8398 25.6523C10.4115 26.4639 10.7222 27.469 11.5338 27.8973C14.0678 29.2346 16.727 29.9081 19.4896 29.9081C26.6479 29.9081 33.0012 25.4297 38.5256 16.7065C39.2348 15.5866 39.1415 14.1388 38.2947 13.1188C35.6392 9.92014 33.7914 7.78417 32.7258 6.68477C32.0871 6.02586 31.0351 6.00946 30.3762 6.64816Z" fill="var(--mi-icon-secondary)"/>
</svg>
