<svg width="36" height="36" viewBox="0 0 36 36" fill="none" xmlns="http://www.w3.org/2000/svg">
<path d="M25.3632 2.99567V14.9957C25.3632 15.8 24.8838 16.3593 24.4282 16.3593H11.571C11.1154 16.3593 10.636 15.8 10.636 14.9957V2.99567H7.36323V14.9957C7.36323 17.5051 9.18633 19.632 11.571 19.632H24.4282C26.8129 19.632 28.636 17.5051 28.636 14.9957V2.99567H25.3632Z" fill="currentColor"/>
<path fill-rule="evenodd" clip-rule="evenodd" d="M25.33 0H3.27273C1.46525 0 0 1.46525 0 3.27272V32.7272C0 34.5347 1.46525 36 3.27273 36H32.7273C34.5347 36 36 34.5347 36 32.7272V11.7463C36 10.9548 35.7132 10.1902 35.1927 9.59399L27.7954 1.12043C27.1739 0.408512 26.275 0 25.33 0ZM3.27408 32.7281V3.27358H25.3313L32.7286 11.7471V32.7281H3.27408Z" fill="var(--mi-icon-secondary)"/>
</svg>
