<svg width="18" height="18" viewBox="0 0 18 18" fill="none" xmlns="http://www.w3.org/2000/svg">
<path fill-rule="evenodd" clip-rule="evenodd" d="M1.05488 10.047C0.472287 10.047 0 9.57471 0 8.99212L0 7.75305C0 7.17045 0.472287 6.69817 1.05488 6.69817L15.0614 6.69817C15.644 6.69817 16.1163 7.17045 16.1163 7.75305V8.99212C16.1163 9.57471 15.644 10.047 15.0614 10.047L1.05488 10.047Z" fill="currentColor"/>
<path d="M13.6689 9.14543L7.1906 2.87781C6.52598 2.23481 6.50846 1.17477 7.15147 0.510155C7.79448 -0.154463 8.85452 -0.171983 9.51913 0.471024L17.2793 7.97886C17.6244 8.31271 17.795 8.75897 17.7893 9.20394C17.7815 9.65593 17.5975 10.0969 17.2426 10.4202L9.39988 17.5635C8.71621 18.1862 7.65718 18.1368 7.03447 17.4531C6.41176 16.7694 6.46118 15.7104 7.14486 15.0877L13.6689 9.14543Z" fill="currentColor"/>
</svg>
