<svg width="33" height="38" viewBox="0 0 33 38" fill="none" xmlns="http://www.w3.org/2000/svg">
<rect opacity="0.01" width="33" height="32.5285" fill="currentColor"/>
<path d="M26.9431 5.83758C25.438 4.39411 23.6821 3.27403 21.7206 2.51286C19.829 1.77929 17.8305 1.40461 15.7826 1.40461C13.7347 1.40461 11.7362 1.77929 9.8446 2.51286C7.88719 3.27403 6.12717 4.39411 4.62211 5.83758C3.11705 7.28106 1.94918 8.96512 1.15553 10.8464C0.390659 12.6606 0 14.5773 0 16.5414C0 18.5055 0.390659 20.4222 1.15553 22.2364C1.94918 24.1137 3.11705 25.8017 4.62211 27.2452L14.6735 36.8853C15.2934 37.4798 16.2718 37.4798 16.8917 36.8853C17.5955 36.2103 17.5372 35.0695 16.7792 34.456C16.3499 34.1085 15.9489 33.7761 15.7792 33.6134C12.9073 30.859 6.7482 24.9025 6.7482 24.9025C1.94105 20.2921 1.94105 12.7907 6.7482 8.18028C9.07571 5.94801 12.4854 4.19795 15.7792 4.19795C19.0731 4.19795 22.4748 5.94801 24.8023 8.18028C29.6095 12.7907 29.6095 20.2921 24.8023 24.9025C24.8023 24.9025 18.6723 30.842 15.7826 33.6134C15.6187 33.7706 15.2158 34.1046 14.7834 34.4551C14.026 35.069 13.9687 36.2094 14.6724 36.8842C15.2929 37.4794 16.2723 37.4794 16.8928 36.8842L26.9431 27.2452C28.4482 25.8017 29.616 24.1177 30.4097 22.2364C31.1746 20.4222 31.5652 18.5055 31.5652 16.5414C31.5652 14.5773 31.1746 12.6606 30.4097 10.8464C29.616 8.96906 28.4482 7.28106 26.9431 5.83758Z" fill="var(--mi-icon-secondary)"/>
<path fill-rule="evenodd" clip-rule="evenodd" d="M15.7818 11.2485C18.9473 11.2485 21.521 13.7697 21.521 16.8708C21.521 19.9685 18.9473 22.4897 15.7818 22.493C12.6163 22.493 10.0427 19.9718 10.0427 16.8708C10.0427 13.7697 12.6163 11.2485 15.7818 11.2485ZM12.9123 16.8694C12.9123 18.4209 14.2014 19.6805 15.7819 19.6805C17.3657 19.6805 18.6515 18.4209 18.6515 16.8694C18.6515 15.3179 17.3657 14.0583 15.7819 14.0583C14.1981 14.0583 12.9123 15.3179 12.9123 16.8694Z" fill="#8D9399"/>
</svg>
