<svg width="37" height="37" viewBox="0 0 37 37" fill="none" xmlns="http://www.w3.org/2000/svg">
<path d="M9.80582 23.4017C9.80582 30.911 15.8934 36.9986 23.4027 36.9986C30.9121 36.9986 36.9996 30.911 36.9996 23.4017C36.9996 15.8923 30.9121 9.80482 23.4027 9.80482V13.6896C28.7665 13.6896 33.1148 18.0379 33.1148 23.4017C33.1148 28.7655 28.7665 33.1137 23.4027 33.1137C18.0389 33.1137 13.6906 28.7655 13.6906 23.4017H9.80582Z" fill="currentColor"/>
<path fill-rule="evenodd" clip-rule="evenodd" d="M24.6039 12.2727C24.6039 19.0519 19.095 24.5454 12.3019 24.5454C5.50886 24.5454 0 19.0519 0 12.2727C0 5.49359 5.50886 0 12.3019 0C19.095 0 24.6039 5.49359 24.6039 12.2727ZM3.42314 12.179C3.42314 17.0148 7.35617 20.9369 12.2102 20.9369C17.0643 20.9369 20.9974 17.0148 20.9974 12.179C20.9974 7.34328 17.0643 3.42115 12.2102 3.42115C7.35617 3.42115 3.42314 7.34328 3.42314 12.179Z" fill="var(--mi-icon-secondary)"/>
</svg>
