<svg width="33" height="37" viewBox="0 0 33 37" fill="none" xmlns="http://www.w3.org/2000/svg">
<path fill-rule="evenodd" clip-rule="evenodd" d="M29.7 15.3156H3.3C1.47746 15.3156 0 16.793 0 18.6156V33.4656C0 35.2881 1.47746 36.7656 3.3 36.7656H29.7C31.5225 36.7656 33 35.2881 33 33.4656V18.6156C33 16.793 31.5225 15.3156 29.7 15.3156ZM3.30136 33.4664V18.6164H29.7014V33.4664H3.30136Z" fill="currentColor"/>
<path d="M9.15016 16.83V11.2781C9.15016 6.84795 12.4667 3.3 16.5002 3.3C19.5342 3.3 22.2437 5.32243 23.3446 8.36468C23.6547 9.22156 24.6008 9.66483 25.4576 9.35474C26.3145 9.04464 26.7578 8.09862 26.4477 7.24173C24.8865 2.92772 20.9642 0 16.5002 0C10.5925 0 5.85016 5.07331 5.85016 11.2781V16.83C5.85016 17.7413 6.58889 18.48 7.50016 18.48C8.41143 18.48 9.15016 17.7413 9.15016 16.83Z" fill="currentColor"/>
<ellipse cx="17.3242" cy="26.3996" rx="2.475" ry="3.3" fill="var(--mi-icon-secondary)"/>
</svg>
