<svg width="50" height="50" viewBox="0 0 50 50" fill="none" xmlns="http://www.w3.org/2000/svg">
<path d="M8.50866 34.3736L18.3907 24.4916L16.2881 22.389L6.26593 32.4112C5.18949 33.4877 5.16172 35.2318 6.23737 36.3074L12.4153 42.4853C13.4909 43.561 15.2351 43.5332 16.3115 42.4568L26.3337 32.4346L24.2311 30.332L14.3491 40.2141L8.50866 34.3736Z" fill="currentColor"/>
<path d="M29.2253 16.3811L31.4928 14.1044L35.7641 18.3343L33.5925 20.5143L29.7923 22.0665C29.4347 22.2126 29.1109 22.4306 28.8411 22.7071L23.7966 27.8775L25.9249 29.954L30.9467 24.8069L34.7461 23.2551C35.0946 23.1127 35.4111 22.902 35.6767 22.6353L39.9754 18.32L31.4783 9.90524L27.0966 14.3048C26.8367 14.5658 26.6304 14.8752 26.4896 15.2156L24.9382 18.9649L20.1644 23.758L22.2712 25.8563L27.0668 21.0413C27.3268 20.7803 27.533 20.4708 27.6739 20.1305L29.2253 16.3811Z" fill="var(--mi-icon-secondary)"/>
<rect width="22.1307" height="2.92907" rx="0.976355" transform="matrix(0.717827 0.717826 -0.717827 0.717826 15.3999 17.8525)" fill="currentColor"/>
<path fill-rule="evenodd" clip-rule="evenodd" d="M11.5763 35.7283C11.1958 35.3344 11.2067 34.7067 11.6008 34.3263L12.313 33.639C12.7067 33.259 13.3338 33.2699 13.7141 33.6634L15.2637 35.2671C15.6442 35.6609 15.6333 36.2887 15.2393 36.669L14.527 37.3564C14.1333 37.7364 13.5062 37.7254 13.126 37.332L11.5763 35.7283Z" fill="currentColor"/>
</svg>
