<svg width="36" height="36" viewBox="0 0 36 36" fill="none" xmlns="http://www.w3.org/2000/svg">
<path fill-rule="evenodd" clip-rule="evenodd" d="M27.1332 20.9477C26.7492 20.9477 26.3652 20.8009 26.0727 20.5087C25.791 20.2279 25.6327 19.847 25.6327 19.4496C25.6327 19.0521 25.791 18.671 26.0727 18.3903L31.2477 13.2216C33.5875 10.8862 33.5875 7.08375 31.2477 4.74673C28.9076 2.41107 25.1023 2.40953 22.7622 4.74673L17.5874 9.91525C17.3062 10.1966 16.9248 10.3547 16.5269 10.3547C16.129 10.3547 15.7474 10.1966 15.4664 9.91525C14.8814 9.33009 14.8814 8.38214 15.4664 7.79698L20.6412 2.62833C24.1497 -0.877294 29.8601 -0.874397 33.3685 2.62675C36.877 6.13395 36.877 11.836 33.3685 15.3401L28.1937 20.5087C27.9127 20.7901 27.5311 20.948 27.1332 20.9477ZM8.99581 35.953C6.69026 35.953 4.38624 35.0766 2.6314 33.3239C-0.877134 29.8181 -0.877134 24.1177 2.6314 20.6119L7.90234 15.3489C8.18337 15.0677 8.56494 14.9097 8.96285 14.9097C9.3606 14.9097 9.74217 15.0677 10.0232 15.3489C10.3049 15.6298 10.4632 16.0107 10.4632 16.4081C10.4632 16.8056 10.3049 17.1867 10.0232 17.4673L4.75243 22.7303C2.41392 25.066 2.41392 28.8682 4.75243 31.2054C7.09231 33.5411 10.8978 33.5411 13.2392 31.2054L18.5086 25.9409C19.0945 25.3566 20.0436 25.3566 20.6296 25.9409C21.2147 26.5261 21.2147 27.474 20.6296 28.0593L15.3602 33.3239C13.6052 35.0766 11.2998 35.953 8.99581 35.953Z" fill="currentColor"/>
<path fill-rule="evenodd" clip-rule="evenodd" d="M13.4966 23.97C13.1126 23.97 12.7286 23.8233 12.4361 23.5311C12.1544 23.2503 11.9962 22.8693 11.9962 22.4719C11.9962 22.0745 12.1544 21.6934 12.4361 21.4127L21.436 12.4238C21.717 12.1424 22.0986 11.9844 22.4963 11.9844C22.8942 11.9844 23.2758 12.1424 23.5568 12.4238C23.8385 12.7044 23.9968 13.0855 23.9968 13.483C23.9968 13.8804 23.8385 14.2615 23.5568 14.5422L14.5569 23.5311C14.2761 23.8125 13.8943 23.9703 13.4966 23.97Z" fill="var(--mi-icon-secondary)"/>
</svg>
