<svg width="35" height="36" viewBox="0 0 35 36" fill="none" xmlns="http://www.w3.org/2000/svg">
<rect x="15.7029" width="3.26423" height="35.9064" rx="0.976355" fill="var(--mi-icon-secondary)"/>
<path fill-rule="evenodd" clip-rule="evenodd" d="M32.3875 6.34877C32.8461 6.06217 33.4503 6.20165 33.7369 6.6603L34.4288 7.76759C34.7154 8.22624 34.5759 8.83039 34.1172 9.11698L2.55952 28.8364C2.10086 29.123 1.49672 28.9835 1.21012 28.5249L0.518207 27.4176C0.231608 26.9589 0.371087 26.3548 0.829741 26.0682L32.3875 6.34877Z" fill="currentColor"/>
<path fill-rule="evenodd" clip-rule="evenodd" d="M2.61115 6.21801C2.1525 5.93141 1.54835 6.07089 1.26175 6.52954L0.569843 7.63683C0.283244 8.09548 0.422722 8.69963 0.881376 8.98623L32.4391 28.7057C32.8977 28.9922 33.5019 28.8528 33.7885 28.3941L34.4804 27.2868C34.767 26.8282 34.6275 26.224 34.1689 25.9374L2.61115 6.21801Z" fill="currentColor"/>
<rect x="12.4374" y="3.26508" width="9.79268" height="3.26422" rx="0.976355" fill="var(--mi-icon-secondary)"/>
<rect x="12.4374" y="29.3789" width="9.79268" height="3.26422" rx="0.976355" fill="var(--mi-icon-secondary)"/>
<path fill-rule="evenodd" clip-rule="evenodd" d="M26.824 5.47116C27.2827 5.18456 27.8868 5.32404 28.1734 5.78269L32.3249 12.4264C32.6115 12.8851 32.472 13.4892 32.0134 13.7758L30.9061 14.4677C30.4474 14.7543 29.8433 14.6148 29.5567 14.1562L25.4052 7.51247C25.1186 7.05381 25.2581 6.44967 25.7167 6.16307L26.824 5.47116Z" fill="currentColor"/>
<path fill-rule="evenodd" clip-rule="evenodd" d="M2.88958 20.704C3.34823 20.4174 3.95238 20.5568 4.23898 21.0155L8.39044 27.6592C8.67704 28.1179 8.53756 28.722 8.07891 29.0086L6.97162 29.7005C6.51297 29.9871 5.90882 29.8476 5.62222 29.389L1.47076 22.7453C1.18416 22.2866 1.32364 21.6825 1.78229 21.3959L2.88958 20.704Z" fill="currentColor"/>
<path fill-rule="evenodd" clip-rule="evenodd" d="M7.42821 5.43443C6.96956 5.14783 6.36541 5.28731 6.07881 5.74596L1.92735 12.3897C1.64075 12.8483 1.78023 13.4525 2.23888 13.7391L3.34617 14.431C3.80482 14.7176 4.40897 14.5781 4.69557 14.1195L8.84703 7.47574C9.13363 7.01708 8.99415 6.41294 8.5355 6.12634L7.42821 5.43443Z" fill="currentColor"/>
<path fill-rule="evenodd" clip-rule="evenodd" d="M31.7035 20.3592C31.2449 20.0726 30.6407 20.2121 30.3541 20.6707L26.2027 27.3144C25.9161 27.7731 26.0555 28.3772 26.5142 28.6638L27.6215 29.3557C28.0801 29.6423 28.6843 29.5029 28.9709 29.0442L33.1223 22.4005C33.4089 21.9418 33.2695 21.3377 32.8108 21.0511L31.7035 20.3592Z" fill="currentColor"/>
</svg>
