<svg width="36" height="33" viewBox="0 0 36 33" fill="none" xmlns="http://www.w3.org/2000/svg">
<path d="M28.9173 32.3123C33.3471 28.9286 36 23.6825 36 18C36 8.05887 27.9411 0 18 0C8.05887 0 0 8.05887 0 18C0 23.8217 2.78513 29.181 7.39847 32.5481C8.12845 33.0809 9.15214 32.921 9.68492 32.191C10.2177 31.4611 10.0578 30.4374 9.32785 29.9046C5.54993 27.1473 3.27273 22.7653 3.27273 18C3.27273 9.86634 9.86635 3.27272 18 3.27272C26.1336 3.27272 32.7273 9.86634 32.7273 18C32.7273 22.6515 30.5584 26.9405 26.9307 29.7115C26.2125 30.2601 26.0751 31.287 26.6236 32.0052C27.1722 32.7234 28.1992 32.8609 28.9173 32.3123Z" fill="var(--mi-icon-secondary)"/>
<path d="M29.4553 18.0017C29.4553 11.6755 24.3269 6.54717 18.0007 6.54717C11.6746 6.54717 6.54619 11.6755 6.54619 18.0017C6.54619 18.9054 7.27881 19.6381 8.18255 19.6381C9.08629 19.6381 9.81891 18.9054 9.81891 18.0017C9.81891 13.483 13.482 9.81989 18.0007 9.81989C22.5194 9.81989 26.1826 13.483 26.1826 18.0017C26.1826 18.9054 26.9152 19.6381 27.8189 19.6381C28.7227 19.6381 29.4553 18.9054 29.4553 18.0017Z" fill="currentColor"/>
<ellipse cx="18.0012" cy="19.6348" rx="3.27273" ry="3.27272" fill="currentColor"/>
<path fill-rule="evenodd" clip-rule="evenodd" d="M11.7083 16.933C11.299 16.5773 11.2557 15.9571 11.6114 15.5479L12.4702 14.5599C12.826 14.1507 13.4461 14.1073 13.8554 14.463L18.5483 18.5425C18.9575 18.8983 19.0009 19.5184 18.6451 19.9276L17.7863 20.9156C17.4306 21.3249 16.8104 21.3682 16.4012 21.0125L11.7083 16.933Z" fill="currentColor"/>
</svg>
