<svg width="36" height="36" viewBox="0 0 36 36" fill="none" xmlns="http://www.w3.org/2000/svg">
<path fill-rule="evenodd" clip-rule="evenodd" d="M16.3617 1.63628C16.3617 0.732585 17.0942 0 17.9979 0C18.9016 0 19.6342 0.732586 19.6342 1.63628V24.5441C19.6342 25.4478 18.9016 26.1804 17.9979 26.1804C17.0942 26.1804 16.3617 25.4478 16.3617 24.5441V1.63628Z" fill="currentColor"/>
<path d="M17.748 23.8699L28.3156 13.6673C28.9657 13.0397 30.0016 13.0579 30.6292 13.708C31.2569 14.3581 31.2387 15.394 30.5886 16.0217L18.8497 27.3551C18.5256 27.668 18.1056 27.8204 17.6882 27.8141C17.2713 27.8078 16.8562 27.6429 16.5416 27.3203L5.37268 15.8664C4.74178 15.2194 4.75483 14.1834 5.40183 13.5525C6.04883 12.9216 7.08479 12.9347 7.71569 13.5817L17.748 23.8699Z" fill="currentColor"/>
<path d="M0 22.9098V31.0912C0 33.8022 2.19776 36 4.90883 36H31.0893C33.8003 36 35.9981 33.8022 35.9981 31.0912V22.9098C35.9981 22.0061 35.2655 21.2735 34.3618 21.2735C33.4581 21.2735 32.7256 22.0061 32.7256 22.9098V31.0912C32.7256 31.9948 31.993 32.7274 31.0893 32.7274H4.90883C4.00514 32.7274 3.27256 31.9948 3.27256 31.0912V22.9098C3.27256 22.0061 2.53997 21.2735 1.63628 21.2735C0.732586 21.2735 0 22.0061 0 22.9098Z" fill="var(--mi-icon-secondary)"/>
</svg>
