<svg width="33" height="36" viewBox="0 0 33 36" fill="none" xmlns="http://www.w3.org/2000/svg">
<path fill-rule="evenodd" clip-rule="evenodd" d="M29.4541 14.7277H3.27268C1.46523 14.7277 0 16.193 0 18.0004V32.7275C0 34.5349 1.46523 36.0002 3.27268 36.0002H29.4541C31.2616 36.0002 32.7268 34.5349 32.7268 32.7275V18.0004C32.7268 16.193 31.2616 14.7277 29.4541 14.7277ZM3.2701 32.7278V18.0008H29.4516V32.7278H3.2701Z" fill="currentColor"/>
<path d="M9.81682 15.3816V10.3544C9.81682 6.42087 12.7713 3.27268 16.3622 3.27268C19.953 3.27268 22.9075 6.42087 22.9075 10.3544V15.3546H26.1802V10.3544C26.1802 4.65824 21.8086 0 16.3622 0C10.9158 0 6.54413 4.65824 6.54413 10.3544V15.3816H9.81682Z" fill="currentColor"/>
<ellipse cx="16.8076" cy="25.5263" rx="2.45451" ry="3.27268" fill="var(--mi-icon-secondary)"/>
</svg>
