<svg width="22" height="36" viewBox="0 0 22 36" fill="none" xmlns="http://www.w3.org/2000/svg">
<path d="M4.40037 16.1296C1.65289 18.1947 0 21.4521 0 24.9834C0 31.0617 4.86034 35.9998 10.8693 35.9998C16.8782 35.9998 21.7385 31.0617 21.7385 24.9834C21.7385 21.456 20.0893 18.2017 17.3469 16.1362C16.6092 15.5806 15.5608 15.7282 15.0052 16.4659C14.4495 17.2036 14.5972 18.252 15.3348 18.8076C17.2446 20.246 18.3941 22.5144 18.3941 24.9834C18.3941 29.2264 15.0191 32.6554 10.8693 32.6554C6.71939 32.6554 3.34439 29.2264 3.34439 24.9834C3.34439 22.5116 4.49651 20.2411 6.40976 18.8031C7.14801 18.2482 7.29667 17.1999 6.74179 16.4616C6.18691 15.7234 5.13863 15.5747 4.40037 16.1296Z" fill="currentColor"/>
<path d="M7.28625 17.1233V5.99849C7.28625 4.61234 8.82652 3.34439 10.8695 3.34439C12.9125 3.34439 14.4528 4.61234 14.4528 5.99849V17.1233C14.4528 18.0468 15.2015 18.7955 16.125 18.7955C17.0485 18.7955 17.7972 18.0468 17.7972 17.1233V5.99849C17.7972 2.60595 14.6316 0 10.8695 0C7.1075 0 3.94186 2.60595 3.94186 5.99849V17.1233C3.94186 18.0468 4.69053 18.7955 5.61406 18.7955C6.53759 18.7955 7.28625 18.0468 7.28625 17.1233Z" fill="currentColor"/>
<path d="M10.8689 18.3902C7.40567 18.3902 4.59817 21.1977 4.59817 24.6609C4.59817 28.1241 7.40567 30.9316 10.8689 30.9316C14.3321 30.9316 17.1396 28.1241 17.1396 24.6609C17.1396 23.7374 16.391 22.9887 15.4674 22.9887C14.5439 22.9887 13.7952 23.7374 13.7952 24.6609C13.7952 26.2771 12.4851 27.5872 10.8689 27.5872C9.25273 27.5872 7.94256 26.2771 7.94256 24.6609C7.94256 23.0447 9.25273 21.7346 10.8689 21.7346C11.7924 21.7346 12.5411 20.9859 12.5411 20.0624C12.5411 19.1388 11.7924 18.3902 10.8689 18.3902Z" fill="currentColor"/>
</svg>
