<svg width="36" height="34" viewBox="0 0 36 34" fill="none" xmlns="http://www.w3.org/2000/svg">
<mask id="mask0_29607_319845" style="mask-type:luminance" maskUnits="userSpaceOnUse" x="0" y="0" width="36" height="34">
<path fill-rule="evenodd" clip-rule="evenodd" d="M0 0H36V33.6586H0V0Z" fill="currentColor"/>
</mask>
<g mask="url(#mask0_29607_319845)">
<path fill-rule="evenodd" clip-rule="evenodd" d="M34.9594 19.4744H30.4587V18.6754C30.4587 18.2245 30.4369 17.7844 30.3936 17.3498H34.965C35.542 17.3688 35.9995 17.8404 35.998 18.4148C35.9964 18.9892 35.5366 19.4584 34.9594 19.4744ZM27.5321 10.5175C27.0799 9.97435 26.5836 9.46903 26.0483 9.00679L29.3761 5.59983C29.569 5.39911 29.8361 5.28578 30.1152 5.28578C30.3944 5.28578 30.6614 5.39911 30.8544 5.59983C31.2635 6.02317 31.2635 6.69243 30.8544 7.11595L27.5321 10.5175ZM16.9746 6.05366V1.03249C16.9746 0.46224 17.4388 0 18.0109 0C18.5833 0 19.0474 0.46224 19.0474 1.03249V6.05366C18.6981 6.02638 18.3548 5.99911 18.0001 5.99911C17.6452 5.99911 17.3129 6.02638 16.9746 6.05366ZM8.64103 10.3349L5.27476 6.88436C4.87102 6.46515 4.87102 5.8038 5.27476 5.38459C5.46574 5.18423 5.73117 5.07067 6.00884 5.07067C6.28637 5.07067 6.55181 5.18423 6.74278 5.38459L10.1357 8.85681C9.59747 9.30793 9.09763 9.80213 8.64103 10.3349ZM5.54171 18.6754V19.4743H1.03564C0.751787 19.4652 0.483306 19.3441 0.2891 19.138C0.0950781 18.9317 -0.00878773 18.6573 0.000583275 18.375C0.0182636 17.8137 0.471211 17.3624 1.03564 17.3444H5.60699C5.56318 17.7868 5.54134 18.2309 5.54171 18.6754Z" fill="var(--mi-icon-secondary)"/>
</g>
</svg>
