<svg width="18" height="17" viewBox="0 0 18 17" fill="none" xmlns="http://www.w3.org/2000/svg">
<path d="M10.7787 11.9953L14.1459 15.4952C14.6293 15.9976 15.4285 16.0131 15.931 15.5297C16.4335 15.0462 16.4489 14.247 15.9655 13.7445L12.5983 10.2447C12.1149 9.74221 11.3156 9.72677 10.8132 10.2102C10.3107 10.6936 10.2953 11.4928 10.7787 11.9953Z" fill="currentColor"/>
<path fill-rule="evenodd" clip-rule="evenodd" d="M13.7736 7.581C13.4619 11.1429 10.2976 13.7702 6.71167 13.4565C3.12577 13.1428 0.465714 10.0058 0.777336 6.44398C1.08896 2.88213 4.25332 0.254785 7.83922 0.56851C11.4251 0.882236 14.0852 4.01915 13.7736 7.581ZM3.29261 6.66577C3.10305 8.83253 4.72912 10.7501 6.93162 10.9428C9.13412 11.1355 11.0685 9.52941 11.258 7.36265C11.4476 5.19589 9.82153 3.27832 7.61903 3.08562C5.41654 2.89293 3.48218 4.49901 3.29261 6.66577Z" fill="currentColor"/>
</svg>
