<svg width="36" height="36" viewBox="0 0 36 36" fill="none" xmlns="http://www.w3.org/2000/svg">
<rect x="16.5138" width="3.27273" height="36" rx="1.0144" fill="currentColor"/>
<path d="M20.9743 4.63561L32.6892 4.63561C32.7113 4.63561 32.7264 4.65069 32.7264 4.66591L32.7264 31.3326C32.7264 31.3478 32.7113 31.3629 32.6892 31.3629L20.9743 31.3629V34.6356H32.6892C34.5157 34.6356 35.9991 33.1583 35.9991 31.3326L35.9991 4.66591C35.9991 2.84018 34.5157 1.36288 32.6892 1.36288H20.9743V4.63561Z" fill="var(--mi-icon-secondary)"/>
<path d="M15.0248 31.3621L3.30992 31.3621C3.28787 31.3621 3.27273 31.347 3.27273 31.3318L3.27273 4.6651C3.27273 4.64988 3.28787 4.6348 3.30992 4.6348L15.0248 4.6348V1.36207L3.30992 1.36207C1.48341 1.36207 0 2.83937 0 4.6651L0 31.3318C0 33.1575 1.48341 34.6348 3.30992 34.6348L15.0248 34.6348L15.0248 31.3621Z" fill="currentColor"/>
</svg>
