<svg width="36" height="36" viewBox="0 0 36 36" fill="none" xmlns="http://www.w3.org/2000/svg">
<path d="M21.3459 15.9474L31.706 15.954C32.268 15.954 32.7268 16.4157 32.7268 16.9904V31.6905C32.7268 32.2651 32.268 32.7269 31.7071 32.7269H17.0983C16.5373 32.7269 16.0785 32.2651 16.0785 31.6905V20.1113H12.8057V31.6905C12.8057 34.0681 14.7253 35.9996 17.0983 35.9996H31.7071C34.0801 35.9996 35.9996 34.0681 35.9996 31.6905V16.9904C35.9996 14.6128 34.0801 12.6812 31.7071 12.6812L21.348 12.6746L21.3459 15.9474Z" fill="currentColor"/>
<path fill-rule="evenodd" clip-rule="evenodd" d="M18.0713 0H3.27275C1.46526 0 0 1.46526 0 3.27275V18.2047C0 20.0122 1.46526 21.4774 3.27275 21.4774H18.0713C19.8788 21.4774 21.3441 20.0122 21.3441 18.2047V3.27275C21.3441 1.46526 19.8788 0 18.0713 0ZM3.2741 18.2055V3.27361H18.0726V18.2055H3.2741Z" fill="var(--mi-icon-secondary)"/>
</svg>
