<svg width="15" height="15" viewBox="0 0 15 15" fill="none" xmlns="http://www.w3.org/2000/svg">
<path fill-rule="evenodd" clip-rule="evenodd" d="M13.75 0H1.25C0.559644 0 0 0.559644 0 1.25V13.5184C0 13.7626 0.071527 14.0014 0.205747 14.2055C0.585194 14.7822 1.36032 14.9421 1.93705 14.5627L5.01248 12.5392C5.11448 12.4721 5.23391 12.4364 5.35601 12.4364H13.75C14.4404 12.4364 15 11.8767 15 11.1864V1.25C15 0.559644 14.4404 0 13.75 0ZM2.54425 11.1169V2.54782H12.4528V9.89267H5.35451C4.73508 9.89267 4.12921 10.0741 3.61174 10.4146L2.54425 11.1169Z" fill="currentColor"/>
</svg>
