<svg width="36" height="35" viewBox="0 0 36 35" fill="none" xmlns="http://www.w3.org/2000/svg">
<path d="M34.3636 31.0909H4.61157C3.85391 31.0909 3.27273 30.5388 3.27273 29.9008V1.63636C3.27273 0.732624 2.5401 0 1.63636 0C0.732625 0 0 0.732624 0 1.63636V29.9008C0 32.3848 2.08291 34.3636 4.61157 34.3636H34.3636C35.2674 34.3636 36 33.631 36 32.7272C36 31.8235 35.2674 31.0909 34.3636 31.0909Z" fill="currentColor"/>
<path d="M13.9759 17.1483L19.8686 23.4419L34.0987 10.242C34.7613 9.62741 34.8001 8.59205 34.1855 7.92948C33.5709 7.2669 32.5356 7.22802 31.873 7.84263L20.0312 18.8272L14.0826 12.4739L6.44326 19.9206C5.79611 20.5515 5.78289 21.5875 6.41372 22.2346C7.04455 22.8818 8.08055 22.895 8.7277 22.2642L13.9759 17.1483Z" fill="var(--mi-icon-secondary)"/>
</svg>
