<svg width="33" height="36" viewBox="0 0 33 36" fill="none" xmlns="http://www.w3.org/2000/svg">
<rect width="32.7301" height="3.27301" rx="1.47933" fill="currentColor"/>
<path fill-rule="evenodd" clip-rule="evenodd" d="M27.6746 5.99726H5.06458C4.96804 5.99726 4.87155 6.00153 4.77539 6.01006C2.97483 6.16978 1.64466 7.75889 1.80437 9.55946L3.88504 33.016C4.03485 34.7049 5.44969 35.9998 7.14524 35.9998H25.6448C27.343 35.9998 28.7592 34.7009 28.9056 33.009L30.9354 9.55244C30.9435 9.4586 30.9476 9.36445 30.9476 9.27027C30.9476 7.46263 29.4822 5.99726 27.6746 5.99726ZM7.14639 32.7277L5.06573 9.27113H27.6757L25.6459 32.7277H7.14639Z" fill="currentColor"/>
<rect x="14.879" y="13.5033" width="3.27301" height="16.5014" rx="1.62726" fill="var(--mi-icon-secondary)"/>
</svg>
