<svg width="36" height="36" viewBox="0 0 36 36" fill="none" xmlns="http://www.w3.org/2000/svg">
<path fill-rule="evenodd" clip-rule="evenodd" d="M32.6094 0.140855C33.0561 0.140855 33.4368 0.299611 33.752 0.621819C34.0688 0.934575 34.2269 1.3165 34.2269 1.76779V11.5059C34.2269 11.9572 34.0688 12.3391 33.7522 12.6568C33.4368 12.9743 33.0561 13.133 32.6094 13.133C32.1626 13.133 31.7819 12.9743 31.4664 12.6568C31.1497 12.3391 30.9921 11.9572 30.9921 11.5059V5.68684L17.5796 19.1547C17.2692 19.4675 16.8903 19.6262 16.4431 19.6262C15.98 19.6262 15.5952 19.4722 15.2873 19.1648C14.9796 18.8521 14.827 18.4652 14.827 18.0041C14.827 17.5525 14.9817 17.1754 15.2934 16.8581L28.706 3.3902H22.9094C22.4629 3.3902 22.0831 3.23121 21.7658 2.914C21.4511 2.59624 21.2921 2.21437 21.2921 1.76779C21.2921 1.3165 21.4511 0.934575 21.7658 0.617063C22.0831 0.299611 22.4629 0.140855 22.9092 0.140855H32.6094Z" fill="currentColor"/>
<path d="M32.5985 16.888V31.6417C32.5985 32.25 32.1104 32.7402 31.5118 32.7402H4.34646C3.74793 32.7402 3.25985 32.25 3.25985 31.6417V4.35827C3.25985 3.75004 3.74793 3.25984 4.34646 3.25984H18.1207C19.0209 3.25984 19.7507 2.5301 19.7507 1.62992C19.7507 0.729741 19.0209 0 18.1207 0H4.34646C1.94439 0 0 1.95284 0 4.35827V31.6417C0 34.0472 1.94439 36 4.34646 36H31.5118C33.9139 36 35.8583 34.0472 35.8583 31.6417V16.888C35.8583 15.9878 35.1286 15.2581 34.2284 15.2581C33.3282 15.2581 32.5985 15.9878 32.5985 16.888Z" fill="var(--mi-icon-secondary)"/>
</svg>
