<svg width="15" height="18" viewBox="0 0 15 18" fill="none" xmlns="http://www.w3.org/2000/svg">
<path fill-rule="evenodd" clip-rule="evenodd" d="M12.4269 0.381824L7.42235 4.98623L2.41785 0.381824C1.86451 -0.127275 0.968278 -0.127275 0.415002 0.381824C-0.138334 0.890868 -0.138334 1.71545 0.415002 2.22455L4.92849 6.37845H2.52566C1.74294 6.37845 1.10939 6.95879 1.10939 7.6817C1.10939 8.39946 1.74294 8.98469 2.52566 8.98469H6.05575V11.0567H2.49806C1.65284 11.0567 0.968278 11.688 0.968278 12.4667C0.968278 13.2431 1.65284 13.8717 2.49806 13.8717H6.05575V16.697C6.05575 17.4199 6.6893 18 7.47219 18C8.25491 18 8.88846 17.4199 8.88846 16.697V13.8717H12.413C13.2581 13.8717 13.9428 13.2431 13.9428 12.4667C13.9428 11.688 13.2581 11.0567 12.413 11.0567H8.88846V8.98469H12.4406C13.2236 8.98469 13.8571 8.39946 13.8571 7.6817C13.8571 6.95879 13.2236 6.37845 12.4406 6.37845H9.91621L14.4297 2.22455C14.983 1.71545 14.983 0.890868 14.4297 0.381824C13.8764 -0.127275 12.9801 -0.127275 12.4269 0.381824Z" fill="currentColor"/>
</svg>
