<svg width="29" height="29" viewBox="0 0 29 29" fill="none" xmlns="http://www.w3.org/2000/svg">
<path fill-rule="evenodd" clip-rule="evenodd" d="M19.3309 5.08372C18.5251 4.27799 17.5067 3.68487 16.4199 3.3067C15.7677 3.07984 15.1273 3.57377 15.1391 4.2943L15.2197 9.19487L13.4903 9.16644L13.4097 4.26586C13.4048 3.97759 13.3292 3.76035 13.1094 3.5406C12.8165 3.24763 12.455 3.1695 12.0249 3.30645C9.22962 4.19713 7.18375 6.8293 7.23575 10.0002C7.26893 12.0181 8.08905 13.6886 9.40754 15.007C9.99351 15.593 10.6504 16.1083 11.3758 16.4084L11.6526 24.4822L11.6692 25.4911C11.6787 26.0675 12.1182 26.5071 12.6947 26.5166L16.7304 26.5829C17.3069 26.5924 17.7323 26.1671 17.7227 25.5906L17.7062 24.5817L17.4294 16.5079C19.8606 15.3951 21.4059 12.971 21.4317 10.1615C21.3985 8.14368 20.5761 6.32899 19.3309 5.08372ZM16.2684 14.5436C15.6389 14.7925 15.2639 15.4213 15.268 16.1784L15.4801 24.4363L13.7138 24.4268L13.5017 16.1689C13.4989 15.6643 13.3073 15.2215 12.9903 14.9045C12.8634 14.7776 12.7365 14.6507 12.4835 14.5234C12.0409 14.3316 11.5975 14.0139 11.2171 13.6334C10.3926 12.8089 9.88185 11.6707 9.93855 10.4725C9.93029 8.95854 10.6172 7.63755 11.8113 6.824L11.8269 9.72563C11.8296 10.2302 12.0212 10.673 12.3383 10.99C12.6554 11.3072 13.098 11.4987 13.6027 11.5014L15.1166 11.5097C16.1259 11.5151 16.9416 10.6994 16.8734 9.75289L16.8578 6.85101C17.1108 6.97862 17.3011 7.16888 17.4913 7.35918C18.3157 8.18356 18.8266 9.32171 18.77 10.52C18.8422 12.2236 17.9044 13.7955 16.2684 14.5436Z" fill="currentColor"/>
</svg>
