<svg width="36" height="37" viewBox="0 0 36 37" fill="none" xmlns="http://www.w3.org/2000/svg">
<path d="M15.7739 27.6051L33.0656 6.37803C33.6364 5.67735 33.5311 4.64662 32.8304 4.07585C32.1297 3.50507 31.099 3.61038 30.5282 4.31106L12.5012 26.4408V34.9665C12.5012 35.8702 13.2338 36.6028 14.1376 36.6028C15.0413 36.6028 15.7739 35.8702 15.7739 34.9665V27.6051Z" fill="currentColor"/>
<path fill-rule="evenodd" clip-rule="evenodd" d="M36 1.47554C36 0.663988 35.3357 0 34.5238 0C34.2471 0 34.0072 0.0739146 33.7857 0.202833L0.793368 17.6127C0.313595 17.8525 0 18.3873 0 18.9407C0 19.4938 0.313595 19.9917 0.811964 20.2501L9.37369 24.9346C9.59501 25.0266 9.83492 25.0821 10.0379 25.0821C10.6099 25.0821 11.1082 24.7685 11.3665 24.2706C11.717 23.5512 11.4218 22.6475 10.7022 22.2788L4.72382 18.9038L28.6746 6.21531L32.5616 4.24071L29.1544 31.3341L20.1496 27.0369C19.9652 26.9263 19.7437 26.8893 19.5038 26.8893C18.9318 26.8893 18.4336 27.2028 18.1754 27.7193C18.0092 28.0696 17.9722 28.4755 18.1015 28.8442C18.2307 29.2315 18.489 29.5268 18.8395 29.6926L29.7079 34.8197C29.8924 34.9303 30.1137 34.9672 30.3536 34.9672C30.5751 34.9672 30.815 34.9119 31.0363 34.8013C31.4608 34.5799 31.756 34.1743 31.8113 33.7131L36 1.65978V1.47554Z" fill="var(--mi-icon-secondary)"/>
</svg>
