<svg width="36" height="36" viewBox="0 0 36 36" fill="none" xmlns="http://www.w3.org/2000/svg">
<path fill-rule="evenodd" clip-rule="evenodd" d="M3.27242 14.2116C3.27242 15.1153 2.53987 15.8478 1.63621 15.8478C0.732557 15.8478 0 15.1153 0 14.2116V4.61114C0 2.06448 2.06448 0 4.61114 0H14.9336C15.8373 0 16.5698 0.732556 16.5698 1.63621C16.5698 2.53986 15.8373 3.27242 14.9336 3.27242H4.61114C3.87179 3.27242 3.27242 3.87179 3.27242 4.61114V14.2116ZM16.6434 34.3638C16.6434 33.4601 15.9108 32.7276 15.0071 32.7276H4.61114C3.87179 32.7276 3.27242 32.1282 3.27242 31.3889V21.8037C3.27242 20.9 2.53987 20.1675 1.63621 20.1675C0.732557 20.1675 0 20.9 0 21.8037V31.3889C0 33.9355 2.06448 36 4.61114 36H15.0071C15.9108 36 16.6434 35.2674 16.6434 34.3638ZM34.3589 20.1675C33.4553 20.1675 32.7227 20.9 32.7227 21.8037V31.3822C32.7227 32.1215 32.1233 32.7209 31.384 32.7209H20.9627C20.059 32.7209 19.3265 33.4534 19.3265 34.3571C19.3265 35.2608 20.059 35.9933 20.9627 35.9933H31.384C33.9307 35.9933 35.9951 33.9288 35.9951 31.3822V21.8037C35.9951 20.9 35.2626 20.1675 34.3589 20.1675ZM19.3265 1.63621C19.3265 2.53986 20.059 3.27242 20.9627 3.27242H31.384C32.1233 3.27242 32.7227 3.87179 32.7227 4.61114V14.2336C32.7227 15.1372 33.4553 15.8698 34.3589 15.8698C35.2626 15.8698 35.9951 15.1372 35.9951 14.2336V4.61114C35.9951 2.06448 33.9307 0 31.384 0H20.9627C20.059 0 19.3265 0.732556 19.3265 1.63621Z" fill="currentColor"/>
<rect y="16.3605" width="35.9967" height="3.27242" rx="0.976355" fill="var(--mi-icon-secondary)"/>
</svg>
