<svg width="36" height="36" viewBox="0 0 36 36" fill="none" xmlns="http://www.w3.org/2000/svg">
<path d="M33.2354 7.78937C29.8547 2.94944 24.2892 0 18.2247 0C8.16443 0 0 8.05375 0 17.9998C0 27.9458 8.16443 35.9996 18.2247 35.9996C26.7053 35.9996 34.0138 30.231 35.954 22.1839C36.1659 21.3054 35.6254 20.4214 34.7468 20.2096C33.8683 19.9978 32.9844 20.5383 32.7725 21.4168C31.1863 27.9955 25.1919 32.7269 18.2247 32.7269C9.96197 32.7269 3.27269 26.1283 3.27269 17.9998C3.27269 9.87128 9.96197 3.27269 18.2247 3.27269C23.2118 3.27269 27.7792 5.69325 30.5525 9.66346C31.07 10.4043 32.0901 10.5854 32.831 10.0679C33.5719 9.55038 33.7529 8.53025 33.2354 7.78937Z" fill="currentColor"/>
<path d="M31.3632 8.08457H24.8178C23.9141 8.08457 23.1815 8.81719 23.1815 9.72092C23.1815 10.6246 23.9141 11.3573 24.8178 11.3573H34.6359V1.63634C34.6359 0.732616 33.9033 0 32.9995 0C32.0958 0 31.3632 0.732616 31.3632 1.63634V8.08457Z" fill="var(--mi-icon-secondary)"/>
</svg>
