<svg width="33" height="33" viewBox="0 0 33 33" fill="none" xmlns="http://www.w3.org/2000/svg">
<path fill-rule="evenodd" clip-rule="evenodd" d="M7.0276 23.6997C7.55505 24.207 8.34599 24.207 8.87326 23.6997C9.40071 23.1928 9.40071 22.4323 8.87326 21.9251L4.52285 17.7427H17.1791C17.9701 17.7427 18.4974 17.2358 18.4974 16.4753C18.4974 15.7145 17.9701 15.2078 17.1791 15.2078L4.52285 15.2078L8.87308 11.0253C9.40034 10.5181 9.40034 9.75746 8.87308 9.25061C8.60935 8.99691 8.34567 8.87036 7.95036 8.87036C7.55468 8.87036 7.29095 8.99727 7.02741 9.25061L0.435663 15.7145C0.435663 15.7145 0.435663 15.8414 0.303524 15.8414C-0.0917878 16.2218 -0.0917878 16.9819 0.435663 17.3622L7.0276 23.6997Z" fill="currentColor"/>
<path d="M3 8.75613V4.22727C3 3.54946 3.54947 3 4.22727 3L28.7727 3C29.4505 3 30 3.54946 30 4.22727L30 28.7727C30 29.4505 29.4505 30 28.7727 30L4.22727 30C3.54947 30 3 29.4505 3 28.7727V25.072C3 24.2435 2.32842 23.572 1.5 23.572C0.671571 23.572 0 24.2435 0 25.072V28.7727C0 31.1074 1.89261 33 4.22727 33H28.7727C31.1074 33 33 31.1074 33 28.7727V4.22727C33 1.89261 31.1074 0 28.7727 0H4.22727C1.89261 0 0 1.89261 0 4.22727V8.75613C0 9.58455 0.671571 10.2561 1.5 10.2561C2.32842 10.2561 3 9.58455 3 8.75613Z" fill="var(--mi-icon-secondary)"/>
</svg>
