<svg width="36" height="35" viewBox="0 0 36 35" fill="none" xmlns="http://www.w3.org/2000/svg">
<path d="M4.2793 11.6403H21.4803C27.7203 11.6403 32.7092 16.1026 32.7092 21.5103C32.7092 26.9179 27.7203 31.3802 21.4803 31.3802H4.09919C3.19069 31.3802 2.4542 32.1167 2.4542 33.0252C2.4542 33.9337 3.19069 34.6702 4.09919 34.6702H21.4803C29.4605 34.6702 35.9992 28.8217 35.9992 21.5103C35.9992 14.1988 29.4605 8.35029 21.4803 8.35029H4.2793C3.37079 8.35029 2.6343 9.08678 2.6343 9.99529C2.6343 10.9038 3.37079 11.6403 4.2793 11.6403Z" fill="currentColor"/>
<path d="M3.97789 10.2276L11.44 17.6434C12.0844 18.2838 12.0877 19.3253 11.4473 19.9697C10.8069 20.6141 9.76532 20.6174 9.12091 19.977L0.484673 11.3944C0.482067 11.3918 0.479744 11.3895 0.477427 11.3871C-0.16298 10.7427 -0.159736 9.70118 0.484673 9.06077L9.12091 0.47819C9.76532 -0.162216 10.8069 -0.158971 11.4473 0.485437C12.0877 1.12985 12.0844 2.17139 11.44 2.8118L3.97789 10.2276Z" fill="var(--mi-icon-secondary)"/>
</svg>
