<svg width="38" height="31" viewBox="0 0 38 31" fill="none" xmlns="http://www.w3.org/2000/svg">
<path fill-rule="evenodd" clip-rule="evenodd" d="M25.8343 14.5735C25.8343 18.5276 22.7043 21.7525 18.8185 21.7525C14.9327 21.7525 11.8027 18.5276 11.8027 14.5735C11.8027 10.6194 14.9327 7.39458 18.8185 7.39458C22.7043 7.39458 25.8343 10.6194 25.8343 14.5735ZM15.0672 14.5744C15.0672 16.7477 16.7584 18.4902 18.8199 18.4902C20.8813 18.4902 22.5725 16.7477 22.5725 14.5744C22.5725 12.401 20.8813 10.6586 18.8199 10.6586C16.7584 10.6586 15.0672 12.401 15.0672 14.5744Z" fill="currentColor"/>
<path fill-rule="evenodd" clip-rule="evenodd" d="M37.1875 16.9842C31.9474 26.238 25.7607 31 18.6339 31C11.4905 31 5.39585 26.2176 0.364075 16.9355C-0.121382 16.04 -0.121352 14.9597 0.364126 14.0644C5.39589 4.78237 11.4905 0 18.6339 0C25.7607 0 31.9475 4.76205 37.1875 14.0158C37.7089 14.9366 37.7089 16.0635 37.1875 16.9842ZM34.2776 15.5009C29.5787 7.25419 24.3663 3.26402 18.6338 3.26402C12.906 3.26402 7.7987 7.25004 3.2978 15.5009C7.79863 23.7516 12.9059 27.7377 18.6338 27.7377C24.3662 27.7377 29.5786 23.7476 34.2776 15.5009Z" fill="var(--mi-icon-secondary)"/>
</svg>
