<svg width="36" height="36" viewBox="0 0 36 36" fill="none" xmlns="http://www.w3.org/2000/svg">
<path fill-rule="evenodd" clip-rule="evenodd" d="M28.6355 18.0052C28.6355 23.8794 23.8736 28.6414 17.9993 28.6414C12.1251 28.6414 7.36313 23.8794 7.36313 18.0052C7.36313 12.131 12.1251 7.36902 17.9993 7.36902C23.8736 7.36902 28.6355 12.131 28.6355 18.0052ZM10.6372 18.0061C10.6372 22.0728 13.9339 25.3696 18.0007 25.3696C22.0674 25.3696 25.3642 22.0728 25.3642 18.0061C25.3642 13.9393 22.0674 10.6426 18.0007 10.6426C13.9339 10.6426 10.6372 13.9393 10.6372 18.0061Z" fill="currentColor"/>
<path fill-rule="evenodd" clip-rule="evenodd" d="M29.6701 4.82904C30.0766 4.82904 30.4286 4.97886 30.7249 5.27395C31.0229 5.56904 31.171 5.92414 31.171 6.329C31.171 6.74406 31.0229 7.09886 30.7249 7.39395L28.6049 9.514C28.3169 9.80387 27.9656 9.94872 27.5503 9.94872C27.1196 9.94872 26.7638 9.80387 26.4779 9.52396C26.1923 9.23882 26.0508 8.87898 26.0508 8.44876C26.0508 8.0337 26.1943 7.68388 26.4834 7.39395L28.6035 5.27395C28.9014 4.97886 29.2563 4.82904 29.6703 4.82904H29.6701ZM31.498 16.4978H34.4978C34.9117 16.4978 35.2658 16.6429 35.5578 16.9377C35.8522 17.2331 35.9983 17.5829 35.9983 17.998C35.9983 18.4131 35.8522 18.7679 35.5578 19.058C35.2658 19.3529 34.9117 19.498 34.4978 19.498H31.498C31.0838 19.498 30.7309 19.3529 30.4363 19.058C30.1442 18.7679 29.9965 18.4128 29.9965 17.998C29.9965 17.5827 30.1442 17.2329 30.4363 16.9377C30.7309 16.6429 31.0838 16.4978 31.498 16.4978ZM17.9989 0C18.4128 0 18.7653 0.150063 19.0596 0.439934C19.3519 0.735084 19.4993 1.09013 19.4993 1.49996V4.49988C19.4993 4.91512 19.3519 5.26974 19.0599 5.56009C18.7653 5.855 18.4128 6.005 17.9989 6.005C17.5843 6.005 17.2319 5.855 16.9372 5.56009C16.6452 5.26974 16.4978 4.91488 16.4978 4.49988V1.49996C16.4978 1.09013 16.6452 0.734841 16.9372 0.439934C17.2321 0.150063 17.5846 0 17.9992 0H17.9989ZM6.34074 4.82904C6.74681 4.82904 7.09882 4.97886 7.39627 5.27395L9.51627 7.39395C9.81427 7.6891 9.96142 8.0439 9.96142 8.44876C9.96142 8.86405 9.81518 9.21891 9.52173 9.50878C9.22901 9.80412 8.87585 9.94872 8.46104 9.94872C8.03888 9.94872 7.68287 9.80387 7.3953 9.51898L5.27482 7.39874C4.98495 7.10881 4.84132 6.75401 4.84132 6.329C4.84132 5.91371 4.98732 5.56382 5.28168 5.26873C5.57373 4.97886 5.92786 4.82904 6.34268 4.82904H6.34074ZM27.5503 26.0405C27.9564 26.0405 28.3079 26.1856 28.6049 26.4854L30.7249 28.6057C31.0229 28.9055 31.171 29.2557 31.171 29.6705C31.171 30.0755 31.0229 30.4306 30.7249 30.7255C30.4284 31.0256 30.0766 31.1704 29.6703 31.1704C29.2564 31.1704 28.9014 31.0256 28.6035 30.7255L26.4834 28.6057C26.1943 28.3206 26.0508 27.9657 26.0508 27.5507C26.0508 27.1354 26.1969 26.7806 26.4905 26.4854C26.7833 26.1906 27.1374 26.0405 27.5513 26.0405H27.5503ZM1.50045 16.4978H4.50031C4.91488 16.4978 5.26738 16.6429 5.56198 16.9377C5.85404 17.2331 6.00167 17.5829 6.00167 17.998C6.00167 18.4131 5.85404 18.7679 5.56198 19.058C5.26738 19.3529 4.91488 19.498 4.50031 19.498H1.50045C1.08655 19.498 0.7329 19.3529 0.44042 19.058C0.145997 18.7679 0 18.4128 0 17.998C0 17.5827 0.145997 17.2329 0.44042 16.9377C0.733143 16.6429 1.08655 16.4978 1.50045 16.4978ZM17.9992 30C18.413 30 18.7655 30.1451 19.0599 30.4399C19.3522 30.7352 19.4995 31.0851 19.4995 31.5002V34.5C19.4995 34.9151 19.3522 35.27 19.0601 35.5601C18.7655 35.8549 18.413 36 17.9989 36C17.5843 36 17.2319 35.8549 16.9372 35.5601C16.6452 35.27 16.4978 34.9148 16.4978 34.5V31.5002C16.4978 31.0849 16.6452 30.735 16.9372 30.4399C17.2319 30.1451 17.5843 30 17.9989 30H17.9992ZM8.46292 26.0405C8.87561 26.0405 9.22998 26.1856 9.52343 26.4854C9.81615 26.7807 9.96385 27.1356 9.96385 27.5507C9.96385 27.9605 9.81427 28.3104 9.51748 28.6055L7.39724 30.7255C7.10094 31.0256 6.74918 31.1704 6.34268 31.1704C5.92786 31.1704 5.57373 31.0256 5.28192 30.7354C4.98732 30.4403 4.84132 30.0855 4.84132 29.6705C4.84132 29.2504 4.98495 28.8953 5.27482 28.6055L7.3953 26.4854C7.69185 26.1856 8.04786 26.0405 8.46104 26.0405H8.46292Z" fill="var(--mi-icon-secondary)"/>
</svg>
