<svg width="37" height="34" viewBox="0 0 37 34" fill="none" xmlns="http://www.w3.org/2000/svg">
<path fill-rule="evenodd" clip-rule="evenodd" d="M0.827598 16.0279L7.21739 22.7625L6.46343 30.7001C6.41662 31.1929 6.49191 31.6897 6.68267 32.1465C7.32409 33.6826 9.08934 34.4079 10.6255 33.7665L18.6165 30.4297L26.6155 33.7672C27.0723 33.9579 27.5691 34.033 28.0619 33.9861C29.719 33.8283 30.9345 32.357 30.7767 30.6998L30.0173 22.7248L35.9749 15.9411C36.2981 15.573 36.5268 15.1317 36.6411 14.6553C37.0294 13.0365 36.0319 11.4095 34.4132 11.0212L26.1768 9.04545L21.1374 1.36149C20.9105 1.01544 20.6147 0.71984 20.2686 0.49309C18.876 -0.419034 17.0078 -0.0295957 16.0956 1.36292L11.0698 9.03574L2.3475 11.0139C1.81902 11.1337 1.33263 11.3938 0.939521 11.7668C-0.268071 12.9126 -0.31818 14.8204 0.827598 16.0279ZM10.6102 21.5947L3.5018 14.1028L13.0801 11.9306L18.6188 3.47486L24.1579 11.9209L33.2483 14.1015L26.6346 21.6323L27.488 30.5947L18.6177 26.8935L9.75534 30.5941L10.6102 21.5947Z" fill="currentColor"/>
<path fill-rule="evenodd" clip-rule="evenodd" d="M18.8289 12.7276C18.3297 11.9835 18.5411 10.9742 19.297 10.4929C20.0278 10.0276 20.9964 10.2305 21.479 10.95L22.4503 12.3982C22.9495 13.1424 22.7381 14.1516 21.9822 14.6329C21.2514 15.0982 20.2829 14.8953 19.8002 14.1758L18.8289 12.7276Z" fill="var(--mi-icon-secondary)"/>
</svg>
