<svg width="36" height="30" viewBox="0 0 36 30" fill="none" xmlns="http://www.w3.org/2000/svg">
<ellipse cx="11.455" cy="3.27272" rx="3.27273" ry="3.27272" fill="currentColor"/>
<rect x="8.89126" y="6.54668" width="4.90909" height="9.81817" rx="1.46453" fill="currentColor"/>
<path fill-rule="evenodd" clip-rule="evenodd" d="M22.198 2.64968L8.44557 17.0886H4.90909C2.19787 17.0886 0 19.2865 0 21.9977V23.5474C0 26.2586 2.19787 28.4565 4.90909 28.4565H11.8427C12.7401 28.4565 13.5981 28.088 14.216 27.4373L27.412 13.5398H31.0909C33.8021 13.5398 36 11.342 36 8.63076V6.54318C36 3.83196 33.8021 1.63409 31.0909 1.63409H24.5678C23.6722 1.63409 22.8157 2.00114 22.198 2.64968ZM9.84944 20.3622L24.5691 4.90768H31.0923C31.996 4.90768 32.7286 5.6403 32.7286 6.54404V8.63162C32.7286 9.53535 31.996 10.268 31.0923 10.268H26.0078L11.8441 25.1846H4.91044C4.0067 25.1846 3.27408 24.452 3.27408 23.5483V21.9986C3.27408 21.0948 4.0067 20.3622 4.91044 20.3622H9.84944Z" fill="var(--mi-icon-secondary)"/>
<path d="M24.0915 28.8874L30.2944 22.4026C30.9191 21.7495 30.8961 20.7137 30.243 20.089C29.5899 19.4643 28.5541 19.4873 27.9294 20.1404L21.7265 26.6252C21.1018 27.2783 21.1248 28.3141 21.7779 28.9388C22.431 29.5635 23.4668 29.5405 24.0915 28.8874Z" fill="currentColor"/>
<path d="M29.0986 25.3253C29.0986 26.2291 29.8312 26.9617 30.7349 26.9617C31.6387 26.9617 32.3713 26.2291 32.3713 25.3253V18.2161H24.657C23.7533 18.2161 23.0207 18.9487 23.0207 19.8525C23.0207 20.7562 23.7533 21.4888 24.657 21.4888H29.0986V25.3253Z" fill="currentColor"/>
</svg>
