<svg width="36" height="36" viewBox="0 0 36 36" fill="none" xmlns="http://www.w3.org/2000/svg">
<path fill-rule="evenodd" clip-rule="evenodd" d="M26.1809 6.54645H3.27261C1.4652 6.54645 0 8.01165 0 9.81906V32.7273C0 34.5347 1.4652 35.9999 3.27261 35.9999H26.1809C27.9883 35.9999 29.4535 34.5347 29.4535 32.7273V9.81906C29.4535 8.01165 27.9883 6.54645 26.1809 6.54645ZM3.27003 32.7282V9.81992H26.1783V32.7282H3.27003Z" fill="currentColor"/>
<path d="M32.7269 3.27261V27.8172C32.7269 28.7209 33.4595 29.4535 34.3632 29.4535C35.2669 29.4535 35.9995 28.7209 35.9995 27.8172V3.01425C35.9995 1.34952 34.65 0 32.9852 0H8.18226C7.27856 0 6.54596 0.732599 6.54596 1.63631C6.54596 2.54001 7.27856 3.27261 8.18226 3.27261H32.7269Z" fill="var(--mi-icon-secondary)"/>
</svg>
