<svg width="36" height="29" viewBox="0 0 36 29" fill="none" xmlns="http://www.w3.org/2000/svg">
<path d="M33.3044 12.4661L18.021 25.4242C17.8664 25.5552 17.6393 25.5534 17.4869 25.4199L2.71346 12.4832C2.03356 11.8878 0.999739 11.9563 0.404364 12.6362C-0.191011 13.3161 -0.122485 14.3499 0.557418 14.9453L15.3309 27.882C16.7025 29.0832 18.7467 29.0995 20.1374 27.9204L35.4209 14.9624C36.1102 14.3779 36.1952 13.3453 35.6108 12.656C35.0263 11.9667 33.9938 11.8817 33.3044 12.4661Z" fill="currentColor"/>
<path d="M33.3044 0.388182L18.021 13.3462C17.8664 13.4773 17.6393 13.4754 17.4869 13.342L2.71346 0.405237C2.03356 -0.190137 0.999739 -0.121614 0.404364 0.558289C-0.191011 1.23819 -0.122485 2.27201 0.557418 2.86738L15.3309 15.8041C16.7025 17.0053 18.7467 17.0216 20.1374 15.8425L35.4209 2.88444C36.1102 2.3 36.1952 1.26741 35.6108 0.578084C35.0263 -0.111239 33.9938 -0.196261 33.3044 0.388182Z" fill="var(--mi-icon-secondary)"/>
</svg>
