<svg width="33" height="36" viewBox="0 0 33 36" fill="none" xmlns="http://www.w3.org/2000/svg">
<path fill-rule="evenodd" clip-rule="evenodd" d="M18.0019 35.0181C18.0019 35.5604 17.5623 36 17.0201 36H15.7109C15.1686 36 14.729 35.5604 14.729 35.0181L14.729 9.16153C14.729 8.61924 15.1686 8.17964 15.7109 8.17964H17.0201C17.5623 8.17964 18.0019 8.61924 18.0019 9.16153L18.0019 35.0181Z" fill="currentColor"/>
<path d="M16.6155 10.4927L6.04648 20.6966C5.39626 21.3244 4.36025 21.3062 3.73249 20.656C3.10473 20.0057 3.12294 18.9697 3.77316 18.342L15.5136 7.00703C15.8378 6.69409 16.2578 6.54168 16.6753 6.54806C17.0922 6.55426 17.5074 6.71928 17.8219 7.04185L28.9924 18.4973C29.6234 19.1444 29.6103 20.1805 28.9632 20.8114C28.3161 21.4424 27.28 21.4294 26.649 20.7823L16.6155 10.4927Z" fill="currentColor"/>
<rect width="32.7298" height="3.27298" rx="0.976355" fill="var(--mi-icon-secondary)"/>
</svg>
