<svg width="36" height="36" viewBox="0 0 36 36" fill="none" xmlns="http://www.w3.org/2000/svg">
<path fill-rule="evenodd" clip-rule="evenodd" d="M36 18C36 27.9411 27.9411 36 18 36C8.05887 36 0 27.9411 0 18C0 8.05887 8.05887 0 18 0C27.9411 0 36 8.05887 36 18ZM3.27015 18.0008C3.27015 26.1345 9.86377 32.7281 17.9974 32.7281C26.1311 32.7281 32.7247 26.1345 32.7247 18.0008C32.7247 9.8672 26.1311 3.27358 17.9974 3.27358C9.86377 3.27358 3.27015 9.8672 3.27015 18.0008Z" fill="var(--mi-icon-secondary)"/>
<rect x="14.4908" y="10.789" width="3.27273" height="10.4727" rx="0.976355" fill="currentColor"/>
<path fill-rule="evenodd" clip-rule="evenodd" d="M26.5562 18.5613C27.0984 18.5613 27.538 19.0009 27.538 19.5431V20.8522C27.538 21.3944 27.0984 21.834 26.5562 21.834H15.6669C15.1247 21.834 14.6851 21.3944 14.6851 20.8522V19.5431C14.6851 19.0009 15.1247 18.5613 15.6669 18.5613L26.5562 18.5613Z" fill="currentColor"/>
</svg>
