<svg width="33" height="31" viewBox="0 0 33 31" fill="none" xmlns="http://www.w3.org/2000/svg">
<rect y="21.2137" width="32.6336" height="3.26336" rx="0.976355" fill="var(--mi-icon-secondary)"/>
<rect y="27.7368" width="32.6336" height="3.26336" rx="0.976355" fill="var(--mi-icon-secondary)"/>
<path d="M1.73904 1.51689C1.18934 9.30684 2.73305 14.5112 6.63348 16.9333C7.39903 17.4087 8.40502 17.1735 8.88043 16.408C9.35583 15.6424 9.12063 14.6364 8.35508 14.161C5.72878 12.5301 4.52076 8.45746 4.99431 1.7466C5.05774 0.847686 4.38045 0.0675483 3.48153 0.00411576C2.58261 -0.0593168 1.80248 0.617977 1.73904 1.51689Z" fill="currentColor"/>
<path d="M12.344 1.51689C11.7943 9.30684 13.338 14.5112 17.2384 16.9333C18.0039 17.4087 19.0099 17.1735 19.4853 16.408C19.9607 15.6424 19.7255 14.6364 18.96 14.161C16.3337 12.5301 15.1257 8.45746 15.5992 1.7466C15.6627 0.847686 14.9854 0.0675483 14.0864 0.00411576C13.1875 -0.0593168 12.4074 0.617977 12.344 1.51689Z" fill="currentColor"/>
<path d="M22.9528 1.51689C22.4031 9.30684 23.9468 14.5112 27.8472 16.9333C28.6128 17.4087 29.6188 17.1735 30.0942 16.408C30.5696 15.6424 30.3344 14.6364 29.5688 14.161C26.9425 12.5301 25.7345 8.45746 26.208 1.7466C26.2715 0.847686 25.5942 0.0675483 24.6953 0.00411576C23.7964 -0.0593168 23.0162 0.617977 22.9528 1.51689Z" fill="currentColor"/>
</svg>
