<svg width="33" height="38" viewBox="0 0 33 38" fill="none" xmlns="http://www.w3.org/2000/svg">
<mask id="mask0_29607_319911" style="mask-type:luminance" maskUnits="userSpaceOnUse" x="0" y="0" width="33" height="38">
<path fill-rule="evenodd" clip-rule="evenodd" d="M0 0H32.8585V38H0V0Z" fill="currentColor"/>
</mask>
<g mask="url(#mask0_29607_319911)">
<path fill-rule="evenodd" clip-rule="evenodd" d="M31.771 2.77923C32.4208 2.89851 32.8919 3.4595 32.8919 4.11389V21.7566C32.8919 24.5183 32.0123 27.106 30.2775 29.4477C28.9297 31.2674 27.0669 32.9334 24.7407 34.4001C20.8523 36.8518 17.0109 37.9081 16.8495 37.9518C16.6157 38.0152 16.3693 38.016 16.135 37.9543C15.9725 37.9115 12.1088 36.8765 8.19733 34.4351C5.85732 32.9748 3.98332 31.3094 2.62724 29.4854C0.882641 27.1389 -0.00197405 24.5386 -0.00197405 21.7566V4.11389C-0.00197405 3.45912 0.470021 2.89771 1.12046 2.77907L16.2396 0.0223651C16.4042 -0.00748149 16.573 -0.00748149 16.7373 0.0225242L31.771 2.77923ZM30.1497 21.7615V5.52982C30.1497 5.36622 30.0319 5.22605 29.8695 5.1962L16.5482 2.75345C16.507 2.74602 16.465 2.74602 16.4238 2.75345L3.01866 5.19769C2.85617 5.22727 2.73801 5.36749 2.73801 5.5313V21.7615C2.73801 27.6456 7.28251 32.1236 16.3715 35.1951C16.4433 35.2193 16.5208 35.2193 16.5926 35.1952C19.1762 34.3255 21.4192 33.2876 23.321 32.0815C27.8521 29.208 30.1497 25.7361 30.1497 21.7615Z" fill="var(--mi-icon-secondary)"/>
</g>
</svg>
