<svg width="36" height="36" viewBox="0 0 36 36" fill="none" xmlns="http://www.w3.org/2000/svg">
<path d="M0 18C0 27.9411 8.05887 36 18 36C27.9411 36 36 27.9411 36 18C36 8.05887 27.9411 0 18 0C17.0963 0 16.3636 0.732624 16.3636 1.63636C16.3636 2.5401 17.0963 3.27272 18 3.27272C26.1336 3.27272 32.7273 9.86634 32.7273 18C32.7273 26.1336 26.1336 32.7272 18 32.7272C9.86635 32.7272 3.27273 26.1336 3.27273 18C3.27273 17.0962 2.5401 16.3636 1.63636 16.3636C0.732625 16.3636 0 17.0962 0 18Z" fill="var(--mi-icon-secondary)"/>
<ellipse cx="18.0022" cy="18.0017" rx="2.97521" ry="2.9752" fill="currentColor"/>
<path fill-rule="evenodd" clip-rule="evenodd" d="M4.12371 6.65815C3.73365 6.28147 3.72281 5.65992 4.09948 5.26986L5.00885 4.32818C5.38552 3.93812 6.00708 3.92727 6.39714 4.30395L17.8257 15.3404C18.2158 15.7171 18.2266 16.3386 17.85 16.7287L16.9406 17.6704C16.5639 18.0604 15.9424 18.0713 15.5523 17.6946L4.12371 6.65815Z" fill="currentColor"/>
</svg>
