<svg width="38" height="38" viewBox="0 0 38 38" fill="none" xmlns="http://www.w3.org/2000/svg">
<rect x="14.9162" y="20.071" width="7.97126" height="3.26097" rx="0.976355" fill="currentColor"/>
<rect x="17.249" y="21.433" width="3.26097" height="7.90157" rx="0.976355" fill="currentColor"/>
<path fill-rule="evenodd" clip-rule="evenodd" d="M24.3654 27.7164H13.4418C11.8891 27.7164 10.6304 28.9752 10.6304 30.5279V34.6879C10.6304 36.2406 11.8891 37.4993 13.4418 37.4993H24.3654C25.9181 37.4993 27.1768 36.2406 27.1768 34.6879V30.5279C27.1768 28.9752 25.9181 27.7164 24.3654 27.7164ZM13.8888 34.2392V30.9783H23.9133V34.2392H13.8888Z" fill="var(--mi-icon-secondary)"/>
<path d="M24.7274 31.046C25.6058 30.1729 26.4068 29.1125 27.3745 27.6146C27.4592 27.4834 27.548 27.349 27.6439 27.2066C27.8244 26.9385 28.4795 25.9939 28.4626 26.0185C30.1603 23.5476 30.9179 21.7201 31.1568 18.646C31.1617 11.9173 25.6621 6.58578 18.9028 6.58578C12.1436 6.58578 6.644 11.9173 6.644 18.5197C6.644 21.2071 7.36631 23.1492 8.96587 25.6164C9.20272 25.9817 10.0842 27.2897 10.2697 27.573L10.3011 27.621C11.247 29.0703 12.1712 30.2251 13.1698 31.1445L15.3785 28.7454C14.605 28.0333 13.8418 27.0796 13.0318 25.8386L12.998 25.7868C12.7951 25.4769 11.919 24.177 11.7021 23.8424C10.4155 21.858 9.90497 20.4853 9.90497 18.5197C9.90497 13.7413 13.9223 9.84675 18.9028 9.84675C23.8833 9.84675 27.9007 13.7413 27.9007 18.5197C27.7165 20.8262 27.1735 22.1363 25.7749 24.1718C25.8032 24.1305 25.1342 25.0952 24.9389 25.3854C24.832 25.5442 24.7319 25.6956 24.6354 25.845C23.7837 27.1634 23.1084 28.0574 22.4286 28.733L24.7274 31.046Z" fill="var(--mi-icon-secondary)"/>
<rect x="17.5758" width="2.65709" height="5.26771" rx="0.795549" fill="currentColor"/>
<path fill-rule="evenodd" clip-rule="evenodd" d="M37.2038 17.3938C37.6441 17.3938 38.0009 17.7507 38.0009 18.1909V19.2305C38.0009 19.6708 37.6441 20.0276 37.2038 20.0276H33.4839C33.0437 20.0276 32.6868 19.6708 32.6868 19.2305V18.1909C32.6868 17.7507 33.0437 17.3938 33.4839 17.3938H37.2038Z" fill="currentColor"/>
<path fill-rule="evenodd" clip-rule="evenodd" d="M32.6905 5.30362C33.0013 4.99562 33.5022 4.99562 33.8129 5.30362L34.5594 6.04365C34.874 6.35551 34.874 6.86404 34.5594 7.1759L31.934 9.77834C31.6233 10.0863 31.1224 10.0863 30.8117 9.77834L30.0651 9.03831C29.7505 8.72646 29.7505 8.21792 30.0651 7.90607L32.6905 5.30362Z" fill="currentColor"/>
<path fill-rule="evenodd" clip-rule="evenodd" d="M5.84859 5.30362C5.53787 4.99562 5.03697 4.99562 4.72625 5.30362L3.97969 6.04365C3.66509 6.35551 3.66509 6.86404 3.97969 7.1759L6.60509 9.77834C6.91581 10.0863 7.41672 10.0863 7.72744 9.77834L8.47399 9.03831C8.7886 8.72646 8.7886 8.21792 8.47399 7.90607L5.84859 5.30362Z" fill="currentColor"/>
<path fill-rule="evenodd" clip-rule="evenodd" d="M4.51612 17.3938C4.95636 17.3938 5.31324 17.7507 5.31324 18.1909V19.2305C5.31324 19.6708 4.95636 20.0276 4.51612 20.0276H0.796197C0.355957 20.0276 -0.000927853 19.6708 -0.000927853 19.2305V18.1909C-0.000927853 17.7507 0.355957 17.3938 0.796197 17.3938H4.51612Z" fill="currentColor"/>
</svg>
