<svg width="36" height="36" viewBox="0 0 36 36" fill="none" xmlns="http://www.w3.org/2000/svg">
<rect x="36" y="3.27275" width="36" height="3.27272" rx="1.07399" transform="rotate(-180 36 3.27275)" fill="currentColor"/>
<path fill-rule="evenodd" clip-rule="evenodd" d="M2.20741 14.1319L15.1104 34.2032C15.3766 34.6173 15.7287 34.9694 16.1428 35.2356C17.7392 36.2618 19.8653 35.7996 20.8916 34.2032L33.7946 14.1319C34.1509 13.5776 34.3404 12.9326 34.3404 12.2736C34.3404 10.3758 32.8019 8.83728 30.904 8.83728L5.09801 8.83728C4.43908 8.83728 3.79404 9.02673 3.23977 9.38305C1.64334 10.4093 1.18113 12.5355 2.20741 14.1319ZM18.1412 32.433C18.0924 32.509 17.9911 32.531 17.9151 32.4821C17.8954 32.4695 17.8786 32.4527 17.8659 32.433L4.96294 12.3617C4.91407 12.2857 4.93608 12.1844 5.0121 12.1355C5.03849 12.1186 5.06921 12.1095 5.10059 12.1095L30.9066 12.1095C30.997 12.1095 31.0702 12.1828 31.0702 12.2732C31.0702 12.3046 31.0612 12.3353 31.0442 12.3617L18.1412 32.433Z" fill="var(--mi-icon-secondary)"/>
</svg>
