<svg width="36" height="36" viewBox="0 0 36 36" fill="none" xmlns="http://www.w3.org/2000/svg">
<path d="M10.4317 3.27272H25.159V10.0007H28.4317V3.04328C28.4317 1.39378 27.158 0 25.5096 0H10.081C8.43268 0 7.15897 1.39378 7.15897 3.04328V10.2764H10.4317V3.27272Z" fill="currentColor"/>
<path d="M9.94679 30.2417H4.36364C3.80739 30.2417 3.27273 29.6394 3.27273 28.806V11.91C3.27273 11.0767 3.80739 10.4744 4.36364 10.4744H31.6364C32.1926 10.4744 32.7273 11.0767 32.7273 11.91V28.806C32.7273 29.6394 32.1926 30.2417 31.6364 30.2417H26.206V33.5144H31.6364C34.0926 33.5144 36 31.3659 36 28.806V11.91C36 9.3502 34.0926 7.20169 31.6364 7.20169H4.36364C1.90742 7.20169 0 9.3502 0 11.91V28.806C0 31.3659 1.90742 33.5144 4.36364 33.5144H9.94679V30.2417Z" fill="var(--mi-icon-secondary)"/>
<path fill-rule="evenodd" clip-rule="evenodd" d="M23.5203 23.0344H12.0658C10.2583 23.0344 8.79306 24.4997 8.79306 26.3071V32.7217C8.79306 34.5291 10.2583 35.9944 12.0658 35.9944H23.5203C25.3278 35.9944 26.7931 34.5291 26.7931 32.7217V26.3071C26.7931 24.4997 25.3278 23.0344 23.5203 23.0344ZM12.0671 32.7225V26.308H23.5217V32.7225H12.0671Z" fill="currentColor"/>
</svg>
