<svg width="33" height="36" viewBox="0 0 33 36" fill="none" xmlns="http://www.w3.org/2000/svg">
<path fill-rule="evenodd" clip-rule="evenodd" d="M14.7279 0.981925C14.7279 0.439639 15.1675 3.06907e-05 15.7098 3.06907e-05L17.019 3.06907e-05C17.5613 3.06907e-05 18.0009 0.43964 18.0009 0.981925L18.0009 26.8385C18.0009 27.3808 17.5613 27.8204 17.019 27.8204H15.7098C15.1675 27.8204 14.7279 27.3808 14.7279 26.8385L14.7279 0.981925Z" fill="currentColor"/>
<path d="M16.1144 25.5073L26.6834 15.3034C27.3336 14.6756 28.3696 14.6938 28.9973 15.344C29.6251 15.9943 29.6069 17.0303 28.9567 17.658L17.2162 28.993C16.8921 29.3059 16.4721 29.4583 16.0546 29.4519C15.6377 29.4457 15.2224 29.2807 14.9079 28.9581L3.73747 17.5027C3.10648 16.8556 3.11953 15.8195 3.76662 15.1886C4.41371 14.5576 5.4498 14.5706 6.08079 15.2177L16.1144 25.5073Z" fill="currentColor"/>
<rect x="32.7298" y="36" width="32.7298" height="3.27298" rx="0.976355" transform="rotate(-180 32.7298 36)" fill="var(--mi-icon-secondary)"/>
</svg>
