<svg width="36" height="34" viewBox="0 0 36 34" fill="none" xmlns="http://www.w3.org/2000/svg">
<path d="M0 1.62753V32.1899C0 33.0888 0.728671 33.8175 1.62753 33.8175C2.5264 33.8175 3.25507 33.0888 3.25507 32.1899V1.62753C3.25507 0.728671 2.5264 0 1.62753 0C0.728671 0 0 0.728671 0 1.62753Z" fill="var(--mi-icon-secondary)"/>
<path d="M1.75399 33.8258H34.3725C35.2713 33.8258 36 33.0972 36 32.1983C36 31.2994 35.2713 30.5708 34.3725 30.5708L1.75399 30.5708C0.855123 30.5708 0.126452 31.2994 0.126452 32.1983C0.126452 33.0972 0.855123 33.8258 1.75399 33.8258Z" fill="var(--mi-icon-secondary)"/>
<path d="M9.15985 18.2742C9.15985 17.7349 9.59705 17.2977 10.1364 17.2977H11.5165C12.0127 17.2977 12.4149 17.6999 12.4149 18.1961V30.6139H9.15985V18.2742Z" fill="currentColor"/>
<path d="M16.6205 7.92099C16.6205 7.38167 17.0577 6.94447 17.597 6.94447H18.9772C19.4733 6.94447 19.8756 7.3467 19.8756 7.84287V30.6177H16.6205V7.92099Z" fill="currentColor"/>
<path d="M24.0811 12.3572C24.0811 11.8179 24.5184 11.3807 25.0577 11.3807H26.4378C26.934 11.3807 27.3362 11.7829 27.3362 12.2791V30.6151H24.0811V12.3572Z" fill="currentColor"/>
</svg>
