<svg width="37" height="37" viewBox="0 0 37 37" fill="none" xmlns="http://www.w3.org/2000/svg">
<path fill-rule="evenodd" clip-rule="evenodd" d="M12.2905 4.94664H7.84415C7.70235 4.94664 7.56071 4.95597 7.42014 4.97455C5.64877 5.20872 4.40263 6.83454 4.63681 8.6059L5.24308 13.1919L1.25116 16.2918C1.03032 16.4633 0.832649 16.6626 0.663077 16.885C-0.420569 18.3056 -0.14736 20.3358 1.27331 21.4194L5.24634 24.4499L4.65964 29.0738C4.62383 29.356 4.6254 29.6417 4.6643 29.9235C4.90862 31.6935 6.54155 32.9303 8.31155 32.6859L13.0774 32.0281L15.8187 35.7C15.9852 35.9231 16.1798 36.1238 16.3977 36.297C17.7963 37.409 19.8316 37.1766 20.9435 35.7781L23.9287 32.0235L28.7831 32.693C29.0399 32.7284 29.3001 32.7329 29.558 32.7062C31.3353 32.5223 32.6271 30.9325 32.4432 29.1552L31.8726 23.6393L35.2928 21.2284C35.5415 21.053 35.7642 20.8435 35.9544 20.6059C37.071 19.211 36.8454 17.175 35.4505 16.0584L31.8793 13.1996L32.4352 8.56733C32.4505 8.43942 32.4582 8.31072 32.4582 8.18189C32.4582 6.39511 31.0097 4.94664 29.223 4.94664H24.6649L20.6658 0.947589C20.651 0.932942 20.6436 0.925618 20.6362 0.918358C20.6287 0.911098 20.6212 0.903902 20.6062 0.88951C19.3107 -0.341021 17.2629 -0.288338 16.0324 1.00718L12.2905 4.94664ZM8.45156 12.7692L7.84528 8.18317H12.2917C13.1786 8.18317 14.0266 7.81906 14.6374 7.17599L18.3793 3.23653L22.3783 7.23559C22.985 7.84231 23.8079 8.18317 24.666 8.18317H29.2241L28.6682 12.8155C28.5349 13.9264 28.9851 15.0274 29.8586 15.7266L33.4299 18.5854L30.0097 20.9963C29.053 21.6707 28.5352 22.8092 28.6556 23.9735L29.2263 29.4894L24.3719 28.8198C23.2396 28.6637 22.1088 29.1166 21.3975 30.0113L18.4123 33.7659L15.671 30.0939C14.9661 29.1497 13.8035 28.6633 12.6362 28.8245L7.87029 29.4823L8.45699 24.8584C8.60222 23.7139 8.12693 22.5786 7.20959 21.8789L3.23655 18.8483L7.22847 15.7485C8.13662 15.0433 8.60225 13.9091 8.45156 12.7692Z" fill="currentColor"/>
<path d="M16.8822 20.715L13.0795 17.4176C12.4046 16.8323 11.3829 16.905 10.7976 17.58C10.2124 18.255 10.2851 19.2766 10.96 19.8619L16.8967 25.0097L27.0687 16.068C27.7397 15.4781 27.8055 14.456 27.2156 13.785C26.6258 13.114 25.6037 13.0482 24.9327 13.6381L16.8822 20.715Z" fill="var(--mi-icon-secondary)"/>
</svg>
