<svg width="36" height="36" viewBox="0 0 36 36" fill="none" xmlns="http://www.w3.org/2000/svg">
<path d="M6.61171 22.6711H4.08201C3.53591 22.6711 3.10463 22.23 3.10463 21.7009V16.5265C3.10463 15.9974 3.53591 15.5563 4.08201 15.5563H6.61171V12.3223H4.08201C1.83389 12.3223 0 14.1979 0 16.5265V21.7009C0 24.0295 1.83389 25.9051 4.08201 25.9051H6.61171V22.6711Z" fill="currentColor"/>
<path d="M29.3883 15.5514H31.918C32.4641 15.5514 32.8954 15.9925 32.8954 16.5216V21.696C32.8954 22.2251 32.4641 22.6662 31.918 22.6662H29.3883V25.9002H31.918C34.1661 25.9002 36 24.0246 36 21.696V16.5216C36 14.193 34.1661 12.3174 31.918 12.3174H29.3883V15.5514Z" fill="currentColor"/>
<path d="M8.13976 3.23399H27.8024V32.3399H16.0321V35.5739H28.0899C29.6264 35.5739 30.907 34.3145 30.907 32.713V2.86084C30.907 1.25936 29.6264 0 28.0899 0H7.8523C6.31576 0 5.03513 1.25936 5.03513 2.86084V25.9222H8.13976V3.23399Z" fill="var(--mi-icon-secondary)"/>
<ellipse cx="16.249" cy="32.3494" rx="3.10463" ry="3.23399" fill="currentColor"/>
</svg>
