<svg width="36" height="36" viewBox="0 0 36 36" fill="none" xmlns="http://www.w3.org/2000/svg">
<path d="M12.7667 1.42966C5.26809 3.56562 0 10.4539 0 18.38C0 28.1104 7.87142 36 17.5832 36C25.2513 36 31.9644 31.0368 34.3037 23.8451C34.5813 22.9919 34.1146 22.0753 33.2615 21.7978C32.4083 21.5203 31.4918 21.9869 31.2143 22.8401C29.3067 28.7042 23.833 32.7512 17.5832 32.7512C9.66737 32.7512 3.24883 26.3178 3.24883 18.38C3.24883 11.9137 7.54617 6.29477 13.6567 4.5542C14.5195 4.30843 15.0197 3.40974 14.7739 2.54693C14.5282 1.68411 13.6295 1.18389 12.7667 1.42966Z" fill="var(--mi-icon-secondary)"/>
<path d="M35.6464 18.9242C35.6464 8.55087 27.4063 0 17.2172 0C16.32 0 15.5928 0.727274 15.5928 1.62441C15.5928 2.52155 16.32 3.24883 17.2172 3.24883C25.5846 3.24883 32.3976 10.3188 32.3976 18.9242C32.3976 19.8214 33.1248 20.5486 34.022 20.5486C34.9191 20.5486 35.6464 19.8214 35.6464 18.9242Z" fill="currentColor"/>
<path d="M18.814 17.7885V1.62441C18.814 0.727274 18.0867 0 17.1896 0C16.2924 0 15.5652 0.727274 15.5652 1.62441V21.0399L34.0196 21.0251C34.9167 21.0244 35.6434 20.2965 35.6427 19.3994C35.6419 18.5023 34.9141 17.7756 34.017 17.7763L18.814 17.7885Z" fill="currentColor"/>
</svg>
