<svg width="36" height="36" viewBox="0 0 36 36" fill="none" xmlns="http://www.w3.org/2000/svg">
<path fill-rule="evenodd" clip-rule="evenodd" d="M32.7273 0H3.27273C1.46525 0 0 1.46525 0 3.27273V32.7273C0 34.5347 1.46525 36 3.27273 36H32.7273C34.5347 36 36 34.5347 36 32.7273V3.27273C36 1.46525 34.5347 0 32.7273 0ZM3.27181 32.7283V3.2738H32.7264V32.7283H3.27181Z" fill="currentColor"/>
<path d="M18.3881 24.1375L28.9204 12.1651C29.5173 11.4866 29.4511 10.4526 28.7726 9.8557C28.0941 9.25877 27.0601 9.32494 26.4631 10.0035L18.2673 19.32L12.6937 13.5911L5.69895 21.4683C5.09888 22.144 5.16024 23.1783 5.83601 23.7784C6.51178 24.3784 7.54605 24.3171 8.14612 23.6413L12.8031 18.3968L18.3881 24.1375Z" fill="var(--mi-icon-secondary)"/>
<path d="M27.4419 18.0039C27.4419 18.9076 28.1746 19.6403 29.0783 19.6403C29.982 19.6403 30.7147 18.9076 30.7147 18.0039V8.05984H20.7706C19.8669 8.05984 19.1342 8.79246 19.1342 9.6962C19.1342 10.5999 19.8669 11.3326 20.7706 11.3326H27.4419V18.0039Z" fill="var(--mi-icon-secondary)"/>
<rect x="5.53844" y="26.3096" width="24.9231" height="3.27273" rx="0.965309" fill="currentColor"/>
</svg>
