<svg width="38" height="31" viewBox="0 0 38 31" fill="none" xmlns="http://www.w3.org/2000/svg">
<path fill-rule="evenodd" clip-rule="evenodd" d="M23.0872 9.52872C23.0872 14.7913 18.782 19.0574 13.4712 19.0574C8.16051 19.0574 3.8553 14.7913 3.8553 9.52872C3.8553 4.26615 8.16051 0 13.4712 0C18.782 0 23.0872 4.26615 23.0872 9.52872ZM7.09493 9.52978C7.09493 12.996 9.94272 15.818 13.4703 15.818C16.998 15.818 19.8457 12.996 19.8457 9.52978C19.8457 6.06356 16.998 3.2416 13.4703 3.2416C9.94272 3.2416 7.09493 6.06356 7.09493 9.52978Z" fill="currentColor"/>
<path d="M23.8099 19.2037C28.7866 19.2037 32.827 15.2 32.827 10.2537C32.827 5.30738 28.7866 1.30362 23.8099 1.30362C22.915 1.30362 22.1896 2.02904 22.1896 2.92389C22.1896 3.81874 22.915 4.54416 23.8099 4.54416C27.0035 4.54416 29.5865 7.10372 29.5865 10.2537C29.5865 13.4036 27.0035 15.9632 23.8099 15.9632C22.915 15.9632 22.1896 16.6886 22.1896 17.5835C22.1896 18.4783 22.915 19.2037 23.8099 19.2037Z" fill="var(--mi-icon-secondary)"/>
<path d="M26.9106 29.38C26.9106 22.057 20.8801 16.1323 13.4553 16.1323C6.03049 16.1323 0 22.057 0 29.38C0 30.2748 0.725419 31.0002 1.62027 31.0002C2.51512 31.0002 3.24054 30.2748 3.24054 29.38C3.24054 23.8596 7.80748 19.3728 13.4553 19.3728C19.1031 19.3728 23.67 23.8596 23.67 29.38C23.67 30.2748 24.3954 31.0002 25.2903 31.0002C26.1851 31.0002 26.9106 30.2748 26.9106 29.38Z" fill="currentColor"/>
<path d="M37.2652 29.38C37.2652 22.057 31.2347 16.1323 23.8099 16.1323C22.915 16.1323 22.1896 16.8577 22.1896 17.7525C22.1896 18.6474 22.915 19.3728 23.8099 19.3728C29.4577 19.3728 34.0246 23.8596 34.0246 29.38C34.0246 30.2748 34.75 31.0002 35.6449 31.0002C36.5397 31.0002 37.2652 30.2748 37.2652 29.38Z" fill="var(--mi-icon-secondary)"/>
</svg>
