<svg width="34" height="38" viewBox="0 0 34 38" fill="none" xmlns="http://www.w3.org/2000/svg">
<path d="M11.3052 16.7279C10.6239 16.1689 9.59967 16.2459 9.01739 16.8999C8.43511 17.5539 8.51533 18.5372 9.19657 19.0962L15.439 24.2184L26.188 15.2769C26.8652 14.7136 26.9385 13.7297 26.3517 13.0796C25.7648 12.4294 24.74 12.359 24.0627 12.9224L15.4245 20.108L11.3052 16.7279Z" fill="currentColor"/>
<path fill-rule="evenodd" clip-rule="evenodd" d="M0.405472 5.59371C0.446045 4.1436 1.52377 2.91225 3.00471 2.62397L16.0218 0.0900943C16.6288 -0.028063 17.2541 -0.0300182 17.8619 0.0843409L31.3495 2.62211C32.87 2.90819 33.9677 4.18615 33.9706 5.67355L34 20.5047C34.004 22.5553 33.5176 24.5795 32.5782 26.4212C29.6771 32.1088 24.5372 35.7474 17.2985 37.291L16.8645 37.3835L16.442 37.2508C9.96989 35.2178 5.20562 31.9728 2.21656 27.5097C0.700408 25.2458 -0.0702434 22.596 0.00503281 19.9056L0.405472 5.59371ZM3.24829 19.9892C3.19052 22.0538 3.78194 24.0873 4.94546 25.8247C7.44033 29.5499 11.4465 32.3282 17.0266 34.1538C23.101 32.7625 27.2696 29.7425 29.6626 25.0509C30.3836 23.6376 30.7568 22.0842 30.7537 20.5105L30.7244 5.67934L17.2368 3.14157C17.0482 3.10609 16.8542 3.10669 16.6658 3.14336L3.64873 5.67724L3.24829 19.9892Z" fill="var(--mi-icon-secondary)"/>
</svg>
