<svg width="36" height="33" viewBox="0 0 36 33" fill="none" xmlns="http://www.w3.org/2000/svg">
<path fill-rule="evenodd" clip-rule="evenodd" d="M32.7273 0H3.27273C1.46525 0 0 1.46525 0 3.27273V24.5454C0 26.3529 1.46525 27.8182 3.27273 27.8182H32.7273C34.5347 27.8182 36 26.3529 36 24.5454V3.27273C36 1.46525 34.5347 0 32.7273 0ZM3.2738 24.5465V3.2738H32.7283V24.5465H3.2738Z" fill="currentColor"/>
<path fill-rule="evenodd" clip-rule="evenodd" d="M7.23284 20.0452C7.48971 20.2977 7.82615 20.4239 8.16264 20.4239C8.4993 20.4239 8.83579 20.2977 9.09267 20.0452L15.3955 13.8496L18.8054 17.2014C19.3189 17.7061 20.1517 17.7061 20.6652 17.2014L28.7309 9.27323C29.2446 8.76851 29.2446 7.94984 28.7309 7.44512C28.2174 6.9404 27.3848 6.9404 26.8711 7.44512L19.7354 14.4594L16.3255 11.1076C15.8118 10.6029 14.9792 10.6029 14.4657 11.1076L7.23284 18.2171C6.71914 18.722 6.71914 19.5405 7.23284 20.0452ZM7.52941 29.4587C6.98717 29.4587 6.5476 29.8983 6.5476 30.4405V31.7496C6.5476 32.2919 6.98717 32.7314 7.52941 32.7314H28.4749C29.0171 32.7314 29.4567 32.2919 29.4567 31.7496V30.4405C29.4567 29.8983 29.0171 29.4587 28.4749 29.4587H7.52941Z" fill="var(--mi-icon-secondary)"/>
</svg>
