<svg width="36" height="33" viewBox="0 0 36 33" fill="none" xmlns="http://www.w3.org/2000/svg">
<path d="M15.4909 4.38643C16.168 4.38643 16.9644 4.3854 18.0303 4.38328C18.6918 4.38197 19.5106 4.38014 21.1853 4.37637C24.2814 4.36958 26.5676 4.36631 29.0768 4.36631C29.708 4.36631 30.2097 4.86036 30.2097 5.45722L30.2505 10.7696L33.5232 10.7444L33.4823 5.44462C33.4824 3.04161 31.5044 1.09358 29.0768 1.09358C26.5648 1.09358 24.2764 1.09686 21.1781 1.10365C19.5031 1.10742 18.6848 1.10926 18.0238 1.11057C16.9599 1.11267 16.1654 1.11371 15.4909 1.11371V4.38643Z" fill="currentColor"/>
<path fill-rule="evenodd" clip-rule="evenodd" d="M13.2915 0H2.76923C1.23983 0 0 1.23983 0 2.76923V29.958C0 31.4874 1.23983 32.7273 2.76923 32.7273H33.2308C34.7602 32.7273 36 31.4874 36 29.958V10.951C36 9.42164 34.7602 8.18181 33.2308 8.18181H21.6947L15.3774 0.94773C14.8515 0.345533 14.091 0 13.2915 0ZM3.2738 29.4556V3.2738H13.0638L20.2087 11.4556H32.7283V29.4556H3.2738Z" fill="var(--mi-icon-secondary)"/>
</svg>
