<svg width="33" height="37" viewBox="0 0 33 37" fill="none" xmlns="http://www.w3.org/2000/svg">
<path fill-rule="evenodd" clip-rule="evenodd" d="M12.2013 19.6942C11.2504 19.6942 10.6155 18.7006 11.0046 17.821L14.7934 9.25411C15.0897 8.58412 15.8657 8.28441 16.5267 8.58481C17.1875 8.88521 17.4831 9.6717 17.187 10.3417L14.2265 17.0356H19.7791C20.7228 17.0356 21.3577 18.0158 20.9824 18.8935L17.1935 27.7559C16.9056 28.4295 16.1334 28.7389 15.4686 28.447C14.804 28.1551 14.4988 27.3724 14.7868 26.6988L17.7813 19.6942H12.2013Z" fill="currentColor"/>
<path fill-rule="evenodd" clip-rule="evenodd" d="M1.3459 8.34904L14.955 0.373609C15.805 -0.1245 16.8577 -0.124539 17.7077 0.373508L31.3186 8.34862C32.1528 8.8374 32.6651 9.73195 32.6646 10.6988L32.6569 26.4553C32.6564 27.4291 32.1359 28.3284 31.2918 28.8139L17.6883 36.6376C16.8481 37.1207 15.8145 37.1208 14.9742 36.6378L1.36553 28.8142C0.520777 28.3286 0 27.4285 0 26.4541V10.6978C0 9.73148 0.512221 8.8376 1.3459 8.34904ZM29.3987 11.0086L16.3325 3.35265L3.26788 11.009V26.1383L16.3321 33.6488L29.3913 26.1382L29.3987 11.0086Z" fill="var(--mi-icon-secondary)"/>
</svg>
