<svg width="36" height="36" viewBox="0 0 36 36" fill="none" xmlns="http://www.w3.org/2000/svg">
<path d="M12.4457 17.922L20.5045 10.047C21.1509 9.41541 21.1628 8.37939 20.5312 7.73301C19.8996 7.08664 18.8636 7.07468 18.2172 7.7063L10.1584 15.5812C9.51197 16.2129 9.50002 17.2489 10.1316 17.8952C10.7633 18.5416 11.7993 18.5536 12.4457 17.922Z" fill="currentColor"/>
<path d="M10.7223 23.657L22.874 28.2892C23.7185 28.6111 24.664 28.1875 24.9859 27.343C25.3078 26.4986 24.8842 25.553 24.0397 25.2311L11.888 20.5989C11.0436 20.277 10.098 20.7006 9.77611 21.5451C9.4542 22.3896 9.87782 23.3351 10.7223 23.657Z" fill="currentColor"/>
<path fill-rule="evenodd" clip-rule="evenodd" d="M36 28.9066C36 32.8228 32.8253 35.9975 28.9091 35.9975C24.9928 35.9975 21.8181 32.8228 21.8181 28.9066C21.8181 24.9904 24.9928 21.8156 28.9091 21.8156C32.8253 21.8156 36 24.9904 36 28.9066ZM25.0899 28.9076C25.0899 31.0164 26.7994 32.7258 28.9081 32.7258C31.0169 32.7258 32.7263 31.0164 32.7263 28.9076C32.7263 26.7989 31.0169 25.0895 28.9081 25.0895C26.7994 25.0895 25.0899 26.7989 25.0899 28.9076Z" fill="var(--mi-icon-secondary)"/>
<path fill-rule="evenodd" clip-rule="evenodd" d="M12.8182 20.0447C12.8182 23.5844 9.94877 26.4538 6.40912 26.4538C2.86946 26.4538 0 23.5844 0 20.0447C0 16.505 2.86946 13.6356 6.40912 13.6356C9.94877 13.6356 12.8182 16.505 12.8182 20.0447ZM3.27381 20.0458C3.27381 21.7779 4.67801 23.1821 6.41019 23.1821C8.14236 23.1821 9.54656 21.7779 9.54656 20.0458C9.54656 18.3136 8.14236 16.9094 6.41019 16.9094C4.67801 16.9094 3.27381 18.3136 3.27381 20.0458Z" fill="currentColor"/>
<path fill-rule="evenodd" clip-rule="evenodd" d="M27.8197 5.72729C27.8197 8.89039 25.2555 11.4546 22.0924 11.4546C18.9293 11.4546 16.3651 8.89039 16.3651 5.72729C16.3651 2.5642 18.9293 0 22.0924 0C25.2555 0 27.8197 2.5642 27.8197 5.72729ZM19.6389 5.72837C19.6389 7.08398 20.7378 8.18292 22.0934 8.18292C23.4491 8.18292 24.548 7.08398 24.548 5.72837C24.548 4.37275 23.4491 3.27381 22.0934 3.27381C20.7378 3.27381 19.6389 4.37275 19.6389 5.72837Z" fill="var(--mi-icon-secondary)"/>
</svg>
