<svg width="21" height="35" viewBox="0 0 21 35" fill="none" xmlns="http://www.w3.org/2000/svg">
<path d="M4.25088 15.5837C1.59674 17.5785 0 20.7253 0 24.1366C0 30.0084 4.69522 34.7788 10.5 34.7788C16.3048 34.7788 21 30.0084 21 24.1366C21 20.7291 19.4068 17.5854 16.7576 15.59C16.0449 15.0533 15.0321 15.1959 14.4954 15.9085C13.9586 16.6211 14.1012 17.634 14.8139 18.1707C16.6587 19.5602 17.7692 21.7515 17.7692 24.1366C17.7692 28.2355 14.5089 31.548 10.5 31.548C6.49111 31.548 3.23077 28.2355 3.23077 24.1366C3.23077 21.7489 4.34375 19.5554 6.192 18.1663C6.90517 17.6303 7.04877 16.6176 6.51275 15.9044C5.97672 15.1912 4.96405 15.0476 4.25088 15.5837Z" fill="currentColor"/>
<path d="M7.03719 16.5415V5.79471C7.03719 4.45564 8.52513 3.23077 10.4987 3.23077C12.4723 3.23077 13.9603 4.45564 13.9603 5.79471V16.5415C13.9603 17.4337 14.6835 18.1569 15.5756 18.1569C16.4678 18.1569 17.191 17.4337 17.191 16.5415V5.79471C17.191 2.51742 14.1329 0 10.4987 0C6.86451 0 3.80642 2.51742 3.80642 5.79471V16.5415C3.80642 17.4337 4.52965 18.1569 5.4218 18.1569C6.31395 18.1569 7.03719 17.4337 7.03719 16.5415Z" fill="currentColor"/>
<path d="M10.4995 17.7697C7.15392 17.7697 4.4418 20.4818 4.4418 23.8273C4.4418 27.1729 7.15392 29.885 10.4995 29.885C13.8451 29.885 16.5572 27.1729 16.5572 23.8273C16.5572 22.9352 15.834 22.212 14.9418 22.212C14.0496 22.212 13.3264 22.9352 13.3264 23.8273C13.3264 25.3886 12.0608 26.6543 10.4995 26.6543C8.93823 26.6543 7.67257 25.3886 7.67257 23.8273C7.67257 22.2661 8.93823 21.0004 10.4995 21.0004C11.3916 21.0004 12.1149 20.2772 12.1149 19.385C12.1149 18.4929 11.3916 17.7697 10.4995 17.7697Z" fill="var(--mi-icon-secondary)"/>
</svg>
