<svg width="13" height="15" viewBox="0 0 13 15" fill="none" xmlns="http://www.w3.org/2000/svg">
<path fill-rule="evenodd" clip-rule="evenodd" d="M10.3557 0.318187L6.18529 4.15519L2.01487 0.318187C1.55376 -0.106062 0.806898 -0.106062 0.345835 0.318187C-0.115278 0.74239 -0.115278 1.42954 0.345835 1.85379L4.10707 5.31537H2.10471C1.45245 5.31537 0.924493 5.799 0.924493 6.40142C0.924493 6.99955 1.45245 7.48724 2.10471 7.48724H5.04646V9.21392H2.08171C1.37737 9.21392 0.806898 9.74 0.806898 10.3889C0.806898 11.0359 1.37737 11.5597 2.08171 11.5597H5.04646V13.9141C5.04646 14.5166 5.57441 15 6.22682 15C6.87909 15 7.40704 14.5166 7.40704 13.9141V11.5597H10.3442C11.0484 11.5597 11.619 11.0359 11.619 10.3889C11.619 9.74 11.0484 9.21392 10.3442 9.21392H7.40704V7.48724H10.3672C11.0196 7.48724 11.5475 6.99955 11.5475 6.40142C11.5475 5.799 11.0196 5.31537 10.3672 5.31537H8.26351L12.0247 1.85379C12.4858 1.42954 12.4858 0.74239 12.0247 0.318187C11.5636 -0.106062 10.8168 -0.106062 10.3557 0.318187Z" fill="currentColor"/>
</svg>
