<svg width="39" height="39" viewBox="0 0 39 39" fill="none" xmlns="http://www.w3.org/2000/svg">
<path fill-rule="evenodd" clip-rule="evenodd" d="M15.6234 25.7248L9.826 21.9134C9.2675 21.5461 8.55702 21.7711 8.23889 22.416C7.92093 23.0611 8.11568 23.8818 8.67418 24.2491L14.4716 28.0606C15.0299 28.428 15.7405 28.2031 16.0585 27.5579C16.3766 26.913 16.1817 26.0923 15.6234 25.7248Z" fill="currentColor"/>
<path fill-rule="evenodd" clip-rule="evenodd" d="M30.2171 14.3126C30.8044 13.9736 31.0101 13.215 30.6764 12.6183C30.3427 12.0216 29.596 11.8127 29.0087 12.1517L19.4612 17.6724L9.91517 12.1528C9.32804 11.8133 8.58115 12.0212 8.24671 12.6175C7.91246 13.214 8.11719 13.9728 8.70431 14.3126L18.3873 19.9105V31.8716C18.3873 32.3156 18.6204 32.7257 18.9989 32.9478C19.3774 33.1698 19.8436 33.1698 20.222 32.9478C20.6003 32.7257 20.8336 32.3156 20.8336 31.8716V19.8607C20.8336 19.8222 20.8151 19.7886 20.8116 19.7501L30.2171 14.3126Z" fill="currentColor"/>
<path fill-rule="evenodd" clip-rule="evenodd" d="M4.55447 9.281L18.0947 1.40585C18.9364 0.916275 19.9762 0.916238 20.818 1.40576L34.3599 9.28058C35.1942 9.76575 35.7074 10.6582 35.7069 11.6234L35.6992 27.1464C35.6988 28.1183 35.1775 29.0155 34.3333 29.4974L20.7987 37.2227C19.9667 37.6975 18.9458 37.6976 18.1138 37.2229L4.57396 29.4977C3.72916 29.0157 3.20766 28.1178 3.20766 27.1452V11.6223C3.20766 10.6578 3.72065 9.76595 4.55447 9.281ZM32.4578 11.9339L19.4575 4.37404L6.45873 11.9343V26.8312L19.457 34.2474L32.4505 26.831L32.4578 11.9339Z" fill="var(--mi-icon-secondary)"/>
</svg>
