<svg width="4" height="17" viewBox="0 0 4 17" fill="none" xmlns="http://www.w3.org/2000/svg">
<path fill-rule="evenodd" clip-rule="evenodd" d="M1.67609 6.73115C0.749578 6.73115 0 7.47982 0 8.40895C0 9.33472 0.749578 10.0834 1.67609 10.0834C2.60283 10.0834 3.35223 9.33472 3.35223 8.40895C3.35223 7.48331 2.59933 6.73115 1.67609 6.73115ZM1.68632 13.6478C0.759805 13.6478 0.0102276 14.3965 0.0102276 15.3223C0.0102276 16.2479 0.759805 17 1.68632 17C2.61305 17 3.36246 16.2514 3.36246 15.3223C3.36246 14.3999 2.60956 13.6478 1.68632 13.6478ZM1.67609 0C0.749578 0 0 0.749578 0 1.67609C0 2.60283 0.749578 3.35223 1.67609 3.35223C2.60283 3.35223 3.35223 2.60283 3.35223 1.67609C3.35223 0.752899 2.59933 0 1.67609 0Z" fill="currentColor"/>
</svg>
