<svg width="33" height="37" viewBox="0 0 33 37" fill="none" xmlns="http://www.w3.org/2000/svg">
<rect x="8.04539" y="10.5721" width="16.087" height="3.21739" rx="0.96024" fill="currentColor"/>
<rect x="8.04539" y="17.1789" width="16.087" height="3.21739" rx="0.96024" fill="currentColor"/>
<rect x="8.04539" y="23.7911" width="10.7246" height="3.21739" rx="0.96024" fill="currentColor"/>
<path fill-rule="evenodd" clip-rule="evenodd" d="M3.2172 36.9999H22.671C23.5151 36.9999 24.3254 36.6682 24.9272 36.0763L31.2125 29.8943C31.8274 29.2894 32.1737 28.463 32.1737 27.6005L32.1737 3.21727C32.1737 1.44035 30.7332 -0.000118869 28.9563 -0.000118869H3.2172C1.44029 -0.000118869 -0.000187889 1.44035 -0.000187889 3.21727L-0.000187889 33.7825C-0.000187889 35.5594 1.44029 36.9999 3.2172 36.9999ZM28.956 27.6035L22.6707 33.7856H3.21683L3.21683 3.22033H28.956L28.956 27.6035Z" fill="var(--mi-icon-secondary)"/>
</svg>
