<svg width="36" height="34" viewBox="0 0 36 34" fill="none" xmlns="http://www.w3.org/2000/svg">
<path fill-rule="evenodd" clip-rule="evenodd" d="M32.6267 8.17055H3.26267C1.46075 8.17055 0 9.6313 0 11.4332V30.7373C0 32.5393 1.46075 34 3.26267 34H32.6267C34.4286 34 35.8893 32.5393 35.8893 30.7373V11.4332C35.8893 9.6313 34.4286 8.17055 32.6267 8.17055ZM3.26305 30.7342V11.4301H32.627V30.7342H3.26305Z" fill="currentColor"/>
<rect x="6.90038" y="16.3307" width="16.5643" height="3.26267" rx="0.96024" fill="var(--mi-icon-secondary)"/>
<rect x="6.90038" y="23.126" width="11.0429" height="3.26267" rx="0.96024" fill="var(--mi-icon-secondary)"/>
<path d="M17.4513 4.04696L26.2409 10.4339C26.9697 10.9635 27.9899 10.802 28.5196 10.0732C29.0492 9.3443 28.8877 8.3241 28.1588 7.79448L17.4322 0L6.90345 7.80359C6.17962 8.34006 6.02775 9.36174 6.56422 10.0856C7.1007 10.8094 8.12237 10.9613 8.8462 10.4248L17.4513 4.04696Z" fill="currentColor"/>
</svg>
