<svg width="36" height="34" viewBox="0 0 36 34" fill="none" xmlns="http://www.w3.org/2000/svg">
<path fill-rule="evenodd" clip-rule="evenodd" d="M21.4193 0H14.196C12.4077 0 10.958 1.44971 10.958 3.23802V7.64173C10.958 9.43004 12.4077 10.8797 14.196 10.8797H21.4193C23.2076 10.8797 24.6573 9.43004 24.6573 7.64173V3.23802C24.6573 1.44971 23.2076 0 21.4193 0ZM14.1964 7.63865V3.23494H21.4197V7.63865H14.1964Z" fill="var(--mi-icon-secondary)"/>
<path fill-rule="evenodd" clip-rule="evenodd" d="M10.4613 23.1203H3.23802C1.44971 23.1203 0 24.57 0 26.3583V30.762C0 32.5503 1.44971 34 3.23802 34H10.4613C12.2496 34 13.6993 32.5503 13.6993 30.762V26.3583C13.6993 24.57 12.2496 23.1203 10.4613 23.1203ZM3.2384 30.7589V26.3552H10.4617V30.7589H3.2384Z" fill="currentColor"/>
<path fill-rule="evenodd" clip-rule="evenodd" d="M32.3793 23.1203H25.156C23.3677 23.1203 21.918 24.57 21.918 26.3583V30.762C21.918 32.5503 23.3677 34 25.156 34H32.3793C34.1676 34 35.6173 32.5503 35.6173 30.762V26.3583C35.6173 24.57 34.1676 23.1203 32.3793 23.1203ZM25.1564 30.7589V26.3552H32.3796V30.7589H25.1564Z" fill="currentColor"/>
<path d="M8.47004 18.7182H27.1509V23.899H30.3889V18.3192C30.3889 16.7067 29.0116 15.4802 27.4 15.4802H8.22096C6.60933 15.4802 5.23202 16.7067 5.23202 18.3192V23.8364H8.47004V18.7182Z" fill="currentColor"/>
<rect x="16.439" y="10.8804" width="2.73986" height="5.43987" fill="currentColor"/>
</svg>
