<svg width="31" height="36" viewBox="0 0 31 36" fill="none" xmlns="http://www.w3.org/2000/svg">
<rect x="6.49455" y="24.1078" width="18.0833" height="3.22917" rx="0.96024" fill="currentColor"/>
<path fill-rule="evenodd" clip-rule="evenodd" d="M27.7708 0H3.22917C1.44575 0 0 1.44575 0 3.22917V32.2917C0 34.0751 1.44575 35.5208 3.22917 35.5208H27.7708C29.5543 35.5208 31 34.0751 31 32.2917V3.22917C31 1.44575 29.5543 0 27.7708 0ZM3.22954 32.2886V3.22609H27.7712V32.2886H3.22954Z" fill="var(--mi-icon-secondary)"/>
<path d="M14.8974 17.1697L11.1061 13.192C10.5484 12.6069 9.62205 12.5847 9.03698 13.1423C8.45191 13.7 8.42968 14.6264 8.98734 15.2114L15.0561 21.5786L24.0926 10.6176C24.6067 9.99395 24.518 9.07158 23.8943 8.55743C23.2707 8.04328 22.3483 8.13204 21.8342 8.75569L14.8974 17.1697Z" fill="currentColor"/>
</svg>
