<svg width="34" height="38" viewBox="0 0 34 38" fill="none" xmlns="http://www.w3.org/2000/svg">
<path fill-rule="evenodd" clip-rule="evenodd" d="M25.0932 4.85781H3.23784C1.44963 4.85781 0 6.30744 0 8.09565V34.7178C0 36.5061 1.44963 37.9557 3.23784 37.9557H25.0932C26.8814 37.9557 28.3311 36.5061 28.3311 34.7178V8.09565C28.3311 6.30744 26.8814 4.85781 25.0932 4.85781ZM3.23821 34.7148V8.09256H25.0936V34.7148H3.23821Z" fill="currentColor"/>
<path d="M8.09732 3.23784H29.8249C30.3139 3.23784 30.7622 3.72155 30.7622 4.37707V27.8214C30.7622 28.7155 31.487 29.4403 32.3811 29.4403C33.2752 29.4403 34 28.7155 34 27.8214V4.37707C34 1.98603 32.1594 0 29.8249 0H8.09732C7.20321 0 6.4784 0.724814 6.4784 1.61892C6.4784 2.51302 7.20321 3.23784 8.09732 3.23784Z" fill="currentColor"/>
<rect x="5.39768" y="29.2037" width="17.5383" height="3.23784" rx="0.96024" fill="var(--mi-icon-secondary)"/>
<rect x="5.39768" y="22.3074" width="12.1419" height="3.23784" rx="0.96024" fill="var(--mi-icon-secondary)"/>
</svg>
