<svg width="33" height="37" viewBox="0 0 33 37" fill="none" xmlns="http://www.w3.org/2000/svg">
<rect x="9.38516" width="3.21768" height="6.60773" rx="0.96024" fill="currentColor"/>
<rect x="20.1113" width="3.21768" height="6.60773" rx="0.96024" fill="currentColor"/>
<path d="M10.5173 18.5905C9.88666 17.9646 8.86801 17.9685 8.24209 18.5991C7.61617 19.2298 7.62001 20.2484 8.25066 20.8743L14.8017 27.3762L23.9243 18.3221C24.555 17.6962 24.5588 16.6776 23.9329 16.0469C23.3069 15.4163 22.2883 15.4124 21.6576 16.0384L14.8017 22.8428L10.5173 18.5905Z" fill="var(--mi-icon-secondary)"/>
<path fill-rule="evenodd" clip-rule="evenodd" d="M28.9591 5.28308H3.21767C1.4406 5.28308 0 6.72368 0 8.50075V33.7825C0 35.5596 1.4406 37.0002 3.21767 37.0002H28.9591C30.7361 37.0002 32.1767 35.5596 32.1767 33.7825V8.50075C32.1767 6.72368 30.7361 5.28308 28.9591 5.28308ZM3.21805 33.7794V8.49769H28.9595V33.7794H3.21805Z" fill="currentColor"/>
</svg>
