<svg width="36" height="36" viewBox="0 0 36 36" fill="none" xmlns="http://www.w3.org/2000/svg">
<path fill-rule="evenodd" clip-rule="evenodd" d="M13.3427 0H3.27274C1.46525 0 0 1.46525 0 3.27274V13.3427C0 15.1502 1.46525 16.6154 3.27274 16.6154H13.3427C15.1502 16.6154 16.6154 15.1502 16.6154 13.3427V3.27274C16.6154 1.46525 15.1502 0 13.3427 0ZM3.27312 13.3396V3.26962H13.3431V13.3396H3.27312Z" fill="currentColor"/>
<path fill-rule="evenodd" clip-rule="evenodd" d="M32.7258 0H22.6558C20.8483 0 19.3831 1.46525 19.3831 3.27274V13.3427C19.3831 15.1502 20.8483 16.6154 22.6558 16.6154H32.7258C34.5333 16.6154 35.9985 15.1502 35.9985 13.3427V3.27274C35.9985 1.46525 34.5333 0 32.7258 0ZM22.6562 13.3396V3.26962H32.7261V13.3396H22.6562Z" fill="var(--mi-icon-secondary)"/>
<path fill-rule="evenodd" clip-rule="evenodd" d="M13.3427 19.3841H3.27274C1.46525 19.3841 0 20.8493 0 22.6568V32.7268C0 34.5342 1.46525 35.9995 3.27274 35.9995H13.3427C15.1502 35.9995 16.6154 34.5342 16.6154 32.7268V22.6568C16.6154 20.8493 15.1502 19.3841 13.3427 19.3841ZM3.27312 32.7237V22.6537H13.3431V32.7237H3.27312Z" fill="currentColor"/>
<path fill-rule="evenodd" clip-rule="evenodd" d="M32.7258 19.3846H22.6558C20.8483 19.3846 19.3831 20.8498 19.3831 22.6573V32.7273C19.3831 34.5347 20.8483 36 22.6558 36H32.7258C34.5333 36 35.9985 34.5347 35.9985 32.7273V22.6573C35.9985 20.8498 34.5333 19.3846 32.7258 19.3846ZM22.6562 32.7242V22.6542H32.7261V32.7242H22.6562Z" fill="currentColor"/>
</svg>
