<svg width="36" height="36" viewBox="0 0 36 36" fill="none" xmlns="http://www.w3.org/2000/svg">
<path fill-rule="evenodd" clip-rule="evenodd" d="M13.3427 0H3.27274C1.46526 0 0 1.46526 0 3.27274V7.80424C0 9.61172 1.46526 11.077 3.27274 11.077H13.3427C15.1502 11.077 16.6155 9.61172 16.6155 7.80424V3.27274C16.6155 1.46526 15.1502 0 13.3427 0ZM3.27312 7.80112V3.26963H13.3431V7.80112H3.27312Z" fill="currentColor"/>
<path fill-rule="evenodd" clip-rule="evenodd" d="M32.7259 0H22.6559C20.8484 0 19.3831 1.46526 19.3831 3.27274V18.8812C19.3831 20.6887 20.8484 22.154 22.6559 22.154H32.7259C34.5333 22.154 35.9986 20.6887 35.9986 18.8812V3.27274C35.9986 1.46526 34.5333 0 32.7259 0ZM22.6562 18.8781V3.26963H32.7262V18.8781H22.6562Z" fill="var(--mi-icon-secondary)"/>
<path fill-rule="evenodd" clip-rule="evenodd" d="M13.3427 13.8459H3.27274C1.46526 13.8459 0 15.3111 0 17.1186V32.7271C0 34.5346 1.46526 35.9998 3.27274 35.9998H13.3427C15.1502 35.9998 16.6155 34.5346 16.6155 32.7271V17.1186C16.6155 15.3111 15.1502 13.8459 13.3427 13.8459ZM3.27312 32.7245V17.116H13.3431V32.7245H3.27312Z" fill="currentColor"/>
<path fill-rule="evenodd" clip-rule="evenodd" d="M32.7259 24.9179H22.6559C20.8484 24.9179 19.3831 26.3831 19.3831 28.1906V32.7221C19.3831 34.5296 20.8484 35.9949 22.6559 35.9949H32.7259C34.5333 35.9949 35.9986 34.5296 35.9986 32.7221V28.1906C35.9986 26.3831 34.5333 24.9179 32.7259 24.9179ZM22.6562 32.719V28.1875H32.7262V32.719H22.6562Z" fill="currentColor"/>
</svg>
