<svg width="34" height="36" viewBox="0 0 34 36" fill="none" xmlns="http://www.w3.org/2000/svg">
<path d="M5.04561 33.3561V4.26717C5.04561 3.65747 5.40516 3.24545 5.73058 3.24545H20.7306C21.056 3.24545 21.4155 3.65747 21.4155 4.26717V33.3561H24.661V4.26717C24.661 1.9559 22.9542 0 20.7306 0H5.73058C3.50699 0 1.80016 1.9559 1.80016 4.26717V33.3561H5.04561Z" fill="currentColor"/>
<path d="M29.2623 7.98394C29.2599 8.23903 29.2591 8.35871 29.2591 8.51189V33.3558H32.5046V8.51189C32.5046 8.37189 32.5053 8.26353 32.5076 8.0143C32.5184 6.86119 32.5038 6.45178 32.3749 5.90684C32.1069 4.77377 31.3004 3.96619 30.0559 3.96619H23.0357V7.21165H29.2619C29.2655 7.40324 29.2654 7.6527 29.2623 7.98394Z" fill="currentColor"/>
<rect y="32.3301" width="34" height="3.24545" rx="1.00597" fill="currentColor"/>
<rect x="7.90565" y="11.0005" width="10.4615" height="3.24545" rx="1.00597" fill="var(--mi-icon-secondary)"/>
<rect x="7.90565" y="17.612" width="10.4615" height="3.24545" rx="1.00597" fill="var(--mi-icon-secondary)"/>
</svg>
