<svg width="11" height="11" viewBox="0 0 11 11" fill="none" xmlns="http://www.w3.org/2000/svg">
<mask id="mask0_29607_320406" style="mask-type:luminance" maskUnits="userSpaceOnUse" x="0" y="0" width="12" height="11">
<path fill-rule="evenodd" clip-rule="evenodd" d="M0 0H11V10.8429H0V0Z" fill="currentColor"/>
</mask>
<g mask="url(#mask0_29607_320406)">
<path fill-rule="evenodd" clip-rule="evenodd" d="M10.7865 4.69802H10.7866L8.01634 6.77056L9.08358 10.1428C9.10029 10.1954 9.10939 10.2513 9.10939 10.3097C9.10939 10.604 8.87857 10.8429 8.59375 10.8429C8.48079 10.8429 8.37651 10.8052 8.29163 10.7414L8.29148 10.7416L5.5 8.65321L2.70837 10.7414C2.62349 10.8052 2.51921 10.8429 2.40625 10.8429C2.12143 10.8429 1.89062 10.604 1.89062 10.3097C1.89062 10.2513 1.89978 10.1954 1.91648 10.1428L2.98366 6.77056L0.213525 4.69802C0.0841785 4.60113 0 4.44389 0 4.26603C0 3.97155 0.23081 3.73282 0.515627 3.73282H3.94496L5.00704 0.376806C5.07163 0.158493 5.26786 0 5.5 0C5.73214 0 5.92837 0.158493 5.99298 0.376806L7.05493 3.73282H10.4844C10.7692 3.73282 11 3.97155 11 4.26603C11 4.44389 10.9158 4.60113 10.7865 4.69802Z" fill="var(--mi-icon-secondary)"/>
</g>
</svg>
