<svg width="39" height="39" viewBox="0 0 39 39" fill="none" xmlns="http://www.w3.org/2000/svg">
<path fill-rule="evenodd" clip-rule="evenodd" d="M28.8657 20.3946V20.2144C28.8657 19.4246 29.5006 18.7844 30.2837 18.7844C31.067 18.7844 31.7019 19.4246 31.7019 20.2144V20.3946C32.2225 20.529 32.7145 20.7378 33.1655 21.0066L33.2932 20.878C33.8473 20.3195 34.7455 20.3199 35.2992 20.8786C35.8529 21.4374 35.8525 22.3431 35.2984 22.9014L35.1709 23.0287C35.4375 23.4835 35.6445 23.9797 35.7778 24.5045H35.9565C36.7397 24.5045 37.3747 25.1448 37.3747 25.9344C37.3747 26.7243 36.7397 27.3645 35.9565 27.3645H35.7778C35.6445 27.8894 35.4375 28.3855 35.1709 28.8403L35.2984 28.969C35.8522 29.5278 35.8519 30.4335 35.2978 30.9918C34.7436 31.5501 33.8455 31.5498 33.2918 30.991L33.1655 30.8625C32.7087 31.1348 32.2159 31.3408 31.7019 31.4745V31.6546C31.7019 32.4444 31.067 33.0847 30.2837 33.0847C29.5006 33.0847 28.8657 32.4444 28.8657 31.6546V31.4745C28.3517 31.3408 27.8588 31.1348 27.4021 30.8625L27.2744 30.991C26.718 31.5331 25.8334 31.5253 25.2864 30.9737C24.7394 30.4221 24.7316 29.5301 25.2692 28.969L25.3967 28.8403C25.1266 28.3797 24.9223 27.8828 24.7897 27.3645H24.6111C23.8278 27.3645 23.1929 26.7243 23.1929 25.9344C23.1929 25.1448 23.8278 24.5045 24.6111 24.5045H24.7897C24.923 23.9797 25.1301 23.4835 25.3967 23.0287L25.2692 22.9C24.7154 22.3412 24.7157 21.4355 25.2698 20.8772C25.8239 20.3189 26.7221 20.3192 27.2758 20.878L27.4021 21.0066C27.8588 20.7343 28.3517 20.5282 28.8657 20.3946ZM30.283 28.7931C31.2964 28.7931 32.2329 28.248 32.7396 27.363C33.2462 26.4782 33.2462 25.3878 32.7396 24.503C32.2329 23.618 31.2964 23.0729 30.283 23.0729C28.7166 23.0729 27.4467 24.3534 27.4467 25.9329C27.4467 27.5126 28.7166 28.7931 30.283 28.7931Z" fill="var(--mi-icon-secondary)"/>
<rect x="17.3327" y="5.65346" width="3.25" height="11.8125" rx="0.96024" fill="currentColor"/>
<circle cx="19.0186" cy="21.0369" r="2.4375" fill="currentColor"/>
<path d="M31.6284 34.7279H7.25338C6.80465 34.7279 6.44088 34.3641 6.44088 33.9154V4.66538C6.44088 4.21664 6.80465 3.85288 7.25338 3.85288H31.6284C32.0771 3.85288 32.4409 4.21664 32.4409 4.66538V16.1568C32.4409 17.0543 33.1684 17.7818 34.0659 17.7818C34.9633 17.7818 35.6909 17.0543 35.6909 16.1568V4.66538C35.6909 2.42172 33.872 0.602877 31.6284 0.602877H7.25338C5.00973 0.602877 3.19088 2.42172 3.19088 4.66538V33.9154C3.19088 36.159 5.00973 37.9779 7.25338 37.9779H31.6284C32.5258 37.9779 33.2534 37.2503 33.2534 36.3529C33.2534 35.4554 32.5258 34.7279 31.6284 34.7279Z" fill="currentColor"/>
</svg>
