<svg width="34" height="35" viewBox="0 0 34 35" fill="none" xmlns="http://www.w3.org/2000/svg">
<rect x="2.88693" y="31.1123" width="28.2264" height="3.20755" rx="0.96024" fill="currentColor"/>
<path d="M30.7925 25.6604H3.20755V3.20755H21.6025C22.4883 3.20755 23.2063 2.48951 23.2063 1.60377C23.2063 0.718034 22.4883 0 21.6025 0H2.7035C1.17052 0 0 1.30058 0 2.8257V26.0422C0 27.5673 1.17052 28.8679 2.7035 28.8679H31.2965C32.8295 28.8679 34 27.5673 34 26.0422V13.8711C34 12.9854 33.282 12.2674 32.3962 12.2674C31.5105 12.2674 30.7925 12.9854 30.7925 13.8711V25.6604Z" fill="currentColor"/>
<path fill-rule="evenodd" clip-rule="evenodd" d="M32.2313 3.87524C32.352 3.50932 32.0151 3.15704 31.6441 3.26133L23.652 5.50851C23.3051 5.60604 23.1846 6.0362 23.4303 6.29976L28.7859 12.0447C29.0353 12.3123 29.4801 12.2147 29.5947 11.8674L32.2313 3.87524Z" fill="var(--mi-icon-secondary)"/>
<path d="M15.0016 8.51927L4.83374 18.9129C4.21435 19.5461 4.2255 20.5615 4.85865 21.1809C5.4918 21.8003 6.5072 21.7891 7.12659 21.156L15.0359 13.071L19.527 17.5255L27.4026 10.0419C28.0447 9.43181 28.0706 8.41669 27.4605 7.7746C26.8503 7.13251 25.8352 7.1066 25.1931 7.71673L19.5749 13.0553L15.0016 8.51927Z" fill="var(--mi-icon-secondary)"/>
</svg>
