<svg width="14" height="15" viewBox="0 0 14 15" fill="none" xmlns="http://www.w3.org/2000/svg">
<path fill-rule="evenodd" clip-rule="evenodd" d="M5.60004 1.58955V1.41174C5.60004 0.632044 6.22685 0 6.99992 0C7.77319 0 8.39996 0.632044 8.39996 1.41174V1.58955C8.91383 1.72223 9.39956 1.92839 9.8448 2.19372L9.9708 2.06681C10.5179 1.5155 11.4045 1.51581 11.9511 2.06743C12.4977 2.61902 12.4974 3.5131 11.9503 4.06426L11.8245 4.18997C12.0876 4.63888 12.292 5.12871 12.4236 5.64684H12.6C13.3732 5.64684 14 6.27888 14 7.05842C14 7.83815 13.3732 8.47016 12.6 8.47016H12.4236C12.292 8.98832 12.0876 9.47811 11.8245 9.92706L11.9503 10.0541C12.4971 10.6058 12.4968 11.4998 11.9497 12.051C11.4027 12.6021 10.5161 12.6018 9.96946 12.0502L9.8448 11.9233C9.39387 12.1921 8.90737 12.3955 8.39996 12.5274V12.7053C8.39996 13.4849 7.77319 14.117 6.99992 14.117C6.22685 14.117 5.60004 13.4849 5.60004 12.7053V12.5274C5.09266 12.3955 4.60613 12.1921 4.15524 11.9233L4.0292 12.0502C3.47991 12.5853 2.60662 12.5776 2.06664 12.0331C1.52666 11.4886 1.51901 10.608 2.04969 10.0541L2.17554 9.92706C1.90895 9.47237 1.70723 8.98181 1.57638 8.47016H1.40004C0.626807 8.47016 0 7.83815 0 7.05842C0 6.27888 0.626807 5.64684 1.40004 5.64684H1.57638C1.70796 5.12871 1.91241 4.63888 2.17554 4.18997L2.04969 4.06287C1.50294 3.51128 1.50324 2.6172 2.0503 2.06604C2.59732 1.51491 3.48398 1.51519 4.03058 2.06681L4.15524 2.19372C4.60613 1.9249 5.09266 1.7215 5.60004 1.58955ZM6.99925 9.88091C7.99961 9.88091 8.92412 9.34277 9.4243 8.46913C9.92445 7.59568 9.92445 6.51926 9.4243 5.64581C8.92412 4.77221 7.99961 4.23407 6.99925 4.23407C5.4529 4.23407 4.19932 5.49812 4.19932 7.05739C4.19932 8.61682 5.4529 9.88091 6.99925 9.88091Z" fill="currentColor"/>
</svg>
