<svg width="34" height="36" viewBox="0 0 34 36" fill="none" xmlns="http://www.w3.org/2000/svg">
<path fill-rule="evenodd" clip-rule="evenodd" d="M16.9998 0.986437C17.8855 0.986437 18.6035 1.70446 18.6035 2.59019C18.6035 3.47592 17.8855 4.19394 16.9998 4.19394C9.38597 4.19394 3.2075 10.4318 3.2075 18.1343C3.2075 19.02 2.48948 19.738 1.60375 19.738C0.718024 19.738 0 19.02 0 18.1343C0 8.66719 7.6076 0.986437 16.9998 0.986437ZM31.9058 26.3878C31.4818 27.1655 30.5077 27.4522 29.73 27.0283C28.9524 26.6044 28.6656 25.6303 29.0895 24.8526C30.2013 22.813 30.7925 20.5199 30.7925 18.1364C30.7925 12.6035 27.5753 7.66617 22.6763 5.42708C21.8707 5.05889 21.5161 4.10737 21.8843 3.30179C22.2525 2.49622 23.204 2.14165 24.0096 2.50984C30.0431 5.26746 34 11.3399 34 18.1364C34 21.0594 33.2728 23.8799 31.9058 26.3878ZM2.62338 23.9288C1.83764 24.3376 1.5321 25.306 1.94092 26.0917C4.85548 31.6933 10.613 35.2807 17.0023 35.2807C20.6475 35.2807 24.1229 34.1188 27.007 31.9979C27.7206 31.4732 27.8737 30.4694 27.349 29.7558C26.8243 29.0422 25.8204 28.8892 25.1069 29.4139C22.7685 31.1334 19.9575 32.0732 17.0023 32.0732C11.8241 32.0732 7.15524 29.1641 4.78632 24.6112C4.37749 23.8255 3.40911 23.52 2.62338 23.9288Z" fill="var(--mi-icon-secondary)"/>
<circle cx="17.642" cy="3.2075" r="3.2075" fill="currentColor"/>
<circle cx="3.52849" cy="25.2272" r="3.2075" fill="currentColor"/>
<circle cx="30.4735" cy="26.5219" r="3.2075" fill="currentColor"/>
</svg>
