<svg width="36" height="33" viewBox="0 0 36 33" fill="none" xmlns="http://www.w3.org/2000/svg">
<rect x="12" y="2.97655" width="24" height="3.27272" rx="0.96024" fill="currentColor"/>
<rect x="12" y="26.7809" width="24" height="3.27272" rx="0.96024" fill="currentColor"/>
<rect y="14.8787" width="24" height="3.27272" rx="0.96024" fill="currentColor"/>
<path fill-rule="evenodd" clip-rule="evenodd" d="M7.49999 0H1.5C0.671572 0 0 0.671572 0 1.5V7.42561C0 8.25403 0.671572 8.9256 1.5 8.9256H7.49999C8.32841 8.9256 8.99999 8.25403 8.99999 7.42561V1.5C8.99999 0.671572 8.32841 0 7.49999 0ZM3.2731 5.64977V3.26961H5.72764V5.64977H3.2731Z" fill="var(--mi-icon-secondary)"/>
<path fill-rule="evenodd" clip-rule="evenodd" d="M7.49999 23.8044H1.5C0.671572 23.8044 0 24.4759 0 25.3044V31.23C0 32.0584 0.671572 32.73 1.5 32.73H7.49999C8.32841 32.73 8.99999 32.0584 8.99999 31.23V25.3044C8.99999 24.4759 8.32841 23.8044 7.49999 23.8044ZM3.2731 29.4541V27.074H5.72764V29.4541H3.2731Z" fill="var(--mi-icon-secondary)"/>
<path fill-rule="evenodd" clip-rule="evenodd" d="M34.4996 11.9022H28.4996C27.6712 11.9022 26.9996 12.5738 26.9996 13.4022V19.3278C26.9996 20.1562 27.6712 20.8278 28.4996 20.8278H34.4996C35.328 20.8278 35.9996 20.1562 35.9996 19.3278V13.4022C35.9996 12.5738 35.328 11.9022 34.4996 11.9022ZM32.7272 17.552H30.2727V15.1718H32.7272V17.552Z" fill="var(--mi-icon-secondary)"/>
</svg>
