<svg width="36" height="36" viewBox="0 0 36 36" fill="none" xmlns="http://www.w3.org/2000/svg">
<path d="M3.26388 19.0897L17.329 5.05649C17.6992 4.68714 18.3008 4.68714 18.671 5.05649L32.7361 19.0897C33.3379 19.6901 34.3125 19.689 34.9129 19.0872C35.5133 18.4855 35.5122 17.5109 34.9104 16.9105L20.8453 2.87728C19.2735 1.30904 16.7265 1.30904 15.1547 2.87728L1.08961 16.9105C0.487835 17.5109 0.486729 18.4855 1.08714 19.0872C1.68755 19.689 2.66211 19.6901 3.26388 19.0897Z" fill="currentColor"/>
<path d="M27.7212 19.6548V31.3044C27.7212 31.8177 27.5945 32.2768 27.4013 32.5731C27.3022 32.725 27.2658 32.7486 27.3145 32.7486H8.82879C8.87747 32.7486 8.84115 32.725 8.74205 32.5731C8.54876 32.2768 8.42211 31.8177 8.42211 31.3044V19.4033C8.42211 18.5532 7.73299 17.8641 6.88292 17.8641C6.03285 17.8641 5.34373 18.5532 5.34373 19.4033V31.3044C5.34373 33.699 6.73168 35.827 8.82879 35.827H27.3145C29.4116 35.827 30.7996 33.699 30.7996 31.3044V19.6548C30.7996 18.8047 30.1105 18.1156 29.2604 18.1156C28.4103 18.1156 27.7212 18.8047 27.7212 19.6548Z" fill="currentColor"/>
<path d="M14.5074 32.7738V24.0912C14.5074 23.5057 14.7929 23.1496 14.9573 23.1496H20.9247C21.0891 23.1496 21.3746 23.5057 21.3746 24.0912V32.7738H24.453V24.0912C24.453 21.9366 22.9573 20.0713 20.9247 20.0713H14.9573C12.9247 20.0713 11.429 21.9366 11.429 24.0912V32.7738H14.5074Z" fill="var(--mi-icon-secondary)"/>
</svg>
